ISO-10303-21;
HEADER;
/* Generated by software containing ST-Developer
 * from STEP Tools, Inc. (www.steptools.com) 
 */
/* OPTION: using custom renumber hook */

FILE_DESCRIPTION(
/* description */ ('STEP AP242 Edition 2',
'CAx-IF Rec.Pracs.---Representation and Presentation of Product Manufa
cturing Information (PMI)---4.0---2014-10-13',
'CAx-IF Rec.Pracs.---3D Tessellated Geometry---0.4---2014-09-14','2;1',
'CAx-IF Rec.Pracs.---User Defined Attributes---1.5---2016-08-15'),
/* implementation_level */ '2;1');

FILE_NAME(
/* name */ 'Part Studio 1 - Part 1',
/* time_stamp */ '2026-05-15T17:09:00Z',
/* author */ (''),
/* organization */ (''),
/* preprocessor_version */ 'ST-DEVELOPER v20',
/* originating_system */ 'ONSHAPE BY PTC INC, 1.214',
/* authorisation */ '  ');

FILE_SCHEMA (('AP242_MANAGED_MODEL_BASED_3D_ENGINEERING_MIM_LF { 1 0 10303 442 3 1 4 }'));
ENDSEC;

DATA;
#10=SHAPE_REPRESENTATION_RELATIONSHIP('','',#359,#11);
#11=ADVANCED_BREP_SHAPE_REPRESENTATION('',(#357),#581);
#12=CYLINDRICAL_SURFACE('',#383,0.0005);
#13=CYLINDRICAL_SURFACE('',#384,0.0005);
#14=CYLINDRICAL_SURFACE('',#385,0.0005);
#15=CYLINDRICAL_SURFACE('',#386,0.0005);
#16=CIRCLE('',#374,0.0005);
#17=CIRCLE('',#375,0.0005);
#18=CIRCLE('',#376,0.0005);
#19=CIRCLE('',#377,0.0005);
#20=CIRCLE('',#379,0.0005);
#21=CIRCLE('',#380,0.0005);
#22=CIRCLE('',#381,0.0005);
#23=CIRCLE('',#382,0.0005);
#24=ORIENTED_EDGE('',*,*,#120,.F.);
#25=ORIENTED_EDGE('',*,*,#121,.T.);
#26=ORIENTED_EDGE('',*,*,#122,.T.);
#27=ORIENTED_EDGE('',*,*,#123,.F.);
#28=ORIENTED_EDGE('',*,*,#124,.F.);
#29=ORIENTED_EDGE('',*,*,#125,.F.);
#30=ORIENTED_EDGE('',*,*,#126,.T.);
#31=ORIENTED_EDGE('',*,*,#123,.T.);
#32=ORIENTED_EDGE('',*,*,#127,.F.);
#33=ORIENTED_EDGE('',*,*,#128,.F.);
#34=ORIENTED_EDGE('',*,*,#129,.T.);
#35=ORIENTED_EDGE('',*,*,#125,.T.);
#36=ORIENTED_EDGE('',*,*,#130,.T.);
#37=ORIENTED_EDGE('',*,*,#131,.F.);
#38=ORIENTED_EDGE('',*,*,#132,.F.);
#39=ORIENTED_EDGE('',*,*,#128,.T.);
#40=ORIENTED_EDGE('',*,*,#133,.T.);
#41=ORIENTED_EDGE('',*,*,#134,.T.);
#42=ORIENTED_EDGE('',*,*,#135,.F.);
#43=ORIENTED_EDGE('',*,*,#131,.T.);
#44=ORIENTED_EDGE('',*,*,#136,.F.);
#45=ORIENTED_EDGE('',*,*,#137,.T.);
#46=ORIENTED_EDGE('',*,*,#138,.T.);
#47=ORIENTED_EDGE('',*,*,#139,.T.);
#48=ORIENTED_EDGE('',*,*,#140,.T.);
#49=ORIENTED_EDGE('',*,*,#141,.T.);
#50=ORIENTED_EDGE('',*,*,#142,.F.);
#51=ORIENTED_EDGE('',*,*,#143,.F.);
#52=ORIENTED_EDGE('',*,*,#144,.F.);
#53=ORIENTED_EDGE('',*,*,#145,.F.);
#54=ORIENTED_EDGE('',*,*,#146,.T.);
#55=ORIENTED_EDGE('',*,*,#143,.T.);
#56=ORIENTED_EDGE('',*,*,#147,.T.);
#57=ORIENTED_EDGE('',*,*,#148,.F.);
#58=ORIENTED_EDGE('',*,*,#149,.F.);
#59=ORIENTED_EDGE('',*,*,#145,.T.);
#60=ORIENTED_EDGE('',*,*,#150,.T.);
#61=ORIENTED_EDGE('',*,*,#151,.F.);
#62=ORIENTED_EDGE('',*,*,#152,.F.);
#63=ORIENTED_EDGE('',*,*,#148,.T.);
#64=ORIENTED_EDGE('',*,*,#153,.F.);
#65=ORIENTED_EDGE('',*,*,#154,.T.);
#66=ORIENTED_EDGE('',*,*,#155,.T.);
#67=ORIENTED_EDGE('',*,*,#151,.T.);
#68=ORIENTED_EDGE('',*,*,#156,.T.);
#69=ORIENTED_EDGE('',*,*,#157,.T.);
#70=ORIENTED_EDGE('',*,*,#158,.F.);
#71=ORIENTED_EDGE('',*,*,#159,.T.);
#72=ORIENTED_EDGE('',*,*,#135,.T.);
#73=ORIENTED_EDGE('',*,*,#160,.T.);
#74=ORIENTED_EDGE('',*,*,#136,.T.);
#75=ORIENTED_EDGE('',*,*,#161,.T.);
#76=ORIENTED_EDGE('',*,*,#140,.F.);
#77=ORIENTED_EDGE('',*,*,#146,.F.);
#78=ORIENTED_EDGE('',*,*,#149,.T.);
#79=ORIENTED_EDGE('',*,*,#152,.T.);
#80=ORIENTED_EDGE('',*,*,#155,.F.);
#81=ORIENTED_EDGE('',*,*,#162,.T.);
#82=ORIENTED_EDGE('',*,*,#156,.F.);
#83=ORIENTED_EDGE('',*,*,#163,.T.);
#84=ORIENTED_EDGE('',*,*,#120,.T.);
#85=ORIENTED_EDGE('',*,*,#126,.F.);
#86=ORIENTED_EDGE('',*,*,#129,.F.);
#87=ORIENTED_EDGE('',*,*,#132,.T.);
#88=ORIENTED_EDGE('',*,*,#138,.F.);
#89=ORIENTED_EDGE('',*,*,#164,.T.);
#90=ORIENTED_EDGE('',*,*,#133,.F.);
#91=ORIENTED_EDGE('',*,*,#130,.F.);
#92=ORIENTED_EDGE('',*,*,#127,.T.);
#93=ORIENTED_EDGE('',*,*,#124,.T.);
#94=ORIENTED_EDGE('',*,*,#122,.F.);
#95=ORIENTED_EDGE('',*,*,#165,.T.);
#96=ORIENTED_EDGE('',*,*,#158,.T.);
#97=ORIENTED_EDGE('',*,*,#166,.T.);
#98=ORIENTED_EDGE('',*,*,#153,.T.);
#99=ORIENTED_EDGE('',*,*,#150,.F.);
#100=ORIENTED_EDGE('',*,*,#147,.F.);
#101=ORIENTED_EDGE('',*,*,#144,.T.);
#102=ORIENTED_EDGE('',*,*,#142,.T.);
#103=ORIENTED_EDGE('',*,*,#167,.T.);
#104=ORIENTED_EDGE('',*,*,#160,.F.);
#105=ORIENTED_EDGE('',*,*,#134,.F.);
#106=ORIENTED_EDGE('',*,*,#164,.F.);
#107=ORIENTED_EDGE('',*,*,#137,.F.);
#108=ORIENTED_EDGE('',*,*,#161,.F.);
#109=ORIENTED_EDGE('',*,*,#139,.F.);
#110=ORIENTED_EDGE('',*,*,#167,.F.);
#111=ORIENTED_EDGE('',*,*,#141,.F.);
#112=ORIENTED_EDGE('',*,*,#162,.F.);
#113=ORIENTED_EDGE('',*,*,#154,.F.);
#114=ORIENTED_EDGE('',*,*,#166,.F.);
#115=ORIENTED_EDGE('',*,*,#157,.F.);
#116=ORIENTED_EDGE('',*,*,#163,.F.);
#117=ORIENTED_EDGE('',*,*,#159,.F.);
#118=ORIENTED_EDGE('',*,*,#165,.F.);
#119=ORIENTED_EDGE('',*,*,#121,.F.);
#120=EDGE_CURVE('',#168,#169,#200,.T.);
#121=EDGE_CURVE('',#168,#170,#201,.T.);
#122=EDGE_CURVE('',#170,#171,#202,.T.);
#123=EDGE_CURVE('',#169,#171,#203,.T.);
#124=EDGE_CURVE('',#172,#171,#204,.T.);
#125=EDGE_CURVE('',#173,#172,#205,.T.);
#126=EDGE_CURVE('',#173,#169,#206,.T.);
#127=EDGE_CURVE('',#174,#172,#207,.T.);
#128=EDGE_CURVE('',#175,#174,#208,.T.);
#129=EDGE_CURVE('',#175,#173,#209,.T.);
#130=EDGE_CURVE('',#174,#176,#210,.T.);
#131=EDGE_CURVE('',#177,#176,#211,.T.);
#132=EDGE_CURVE('',#175,#177,#212,.T.);
#133=EDGE_CURVE('',#176,#178,#213,.T.);
#134=EDGE_CURVE('',#178,#179,#214,.F.);
#135=EDGE_CURVE('',#177,#179,#215,.T.);
#136=EDGE_CURVE('',#180,#181,#216,.T.);
#137=EDGE_CURVE('',#180,#182,#217,.T.);
#138=EDGE_CURVE('',#182,#183,#218,.T.);
#139=EDGE_CURVE('',#183,#181,#219,.F.);
#140=EDGE_CURVE('',#184,#185,#220,.T.);
#141=EDGE_CURVE('',#185,#186,#221,.T.);
#142=EDGE_CURVE('',#187,#186,#222,.T.);
#143=EDGE_CURVE('',#184,#187,#223,.T.);
#144=EDGE_CURVE('',#188,#187,#224,.T.);
#145=EDGE_CURVE('',#189,#188,#225,.T.);
#146=EDGE_CURVE('',#189,#184,#226,.T.);
#147=EDGE_CURVE('',#188,#190,#227,.T.);
#148=EDGE_CURVE('',#191,#190,#228,.T.);
#149=EDGE_CURVE('',#189,#191,#229,.T.);
#150=EDGE_CURVE('',#190,#192,#230,.T.);
#151=EDGE_CURVE('',#193,#192,#231,.T.);
#152=EDGE_CURVE('',#191,#193,#232,.T.);
#153=EDGE_CURVE('',#194,#192,#233,.T.);
#154=EDGE_CURVE('',#194,#195,#234,.F.);
#155=EDGE_CURVE('',#195,#193,#235,.T.);
#156=EDGE_CURVE('',#196,#197,#236,.T.);
#157=EDGE_CURVE('',#197,#198,#237,.T.);
#158=EDGE_CURVE('',#199,#198,#238,.T.);
#159=EDGE_CURVE('',#199,#196,#239,.F.);
#160=EDGE_CURVE('',#179,#180,#16,.T.);
#161=EDGE_CURVE('',#181,#185,#17,.T.);
#162=EDGE_CURVE('',#195,#197,#18,.T.);
#163=EDGE_CURVE('',#196,#168,#19,.T.);
#164=EDGE_CURVE('',#182,#178,#20,.F.);
#165=EDGE_CURVE('',#170,#199,#21,.F.);
#166=EDGE_CURVE('',#198,#194,#22,.F.);
#167=EDGE_CURVE('',#186,#183,#23,.F.);
#168=VERTEX_POINT('',#484);
#169=VERTEX_POINT('',#485);
#170=VERTEX_POINT('',#487);
#171=VERTEX_POINT('',#489);
#172=VERTEX_POINT('',#493);
#173=VERTEX_POINT('',#495);
#174=VERTEX_POINT('',#499);
#175=VERTEX_POINT('',#501);
#176=VERTEX_POINT('',#505);
#177=VERTEX_POINT('',#507);
#178=VERTEX_POINT('',#511);
#179=VERTEX_POINT('',#513);
#180=VERTEX_POINT('',#517);
#181=VERTEX_POINT('',#518);
#182=VERTEX_POINT('',#520);
#183=VERTEX_POINT('',#522);
#184=VERTEX_POINT('',#526);
#185=VERTEX_POINT('',#527);
#186=VERTEX_POINT('',#529);
#187=VERTEX_POINT('',#531);
#188=VERTEX_POINT('',#535);
#189=VERTEX_POINT('',#537);
#190=VERTEX_POINT('',#541);
#191=VERTEX_POINT('',#543);
#192=VERTEX_POINT('',#547);
#193=VERTEX_POINT('',#549);
#194=VERTEX_POINT('',#553);
#195=VERTEX_POINT('',#555);
#196=VERTEX_POINT('',#559);
#197=VERTEX_POINT('',#560);
#198=VERTEX_POINT('',#562);
#199=VERTEX_POINT('',#564);
#200=LINE('',#483,#240);
#201=LINE('',#486,#241);
#202=LINE('',#488,#242);
#203=LINE('',#490,#243);
#204=LINE('',#492,#244);
#205=LINE('',#494,#245);
#206=LINE('',#496,#246);
#207=LINE('',#498,#247);
#208=LINE('',#500,#248);
#209=LINE('',#502,#249);
#210=LINE('',#504,#250);
#211=LINE('',#506,#251);
#212=LINE('',#508,#252);
#213=LINE('',#510,#253);
#214=LINE('',#512,#254);
#215=LINE('',#514,#255);
#216=LINE('',#516,#256);
#217=LINE('',#519,#257);
#218=LINE('',#521,#258);
#219=LINE('',#523,#259);
#220=LINE('',#525,#260);
#221=LINE('',#528,#261);
#222=LINE('',#530,#262);
#223=LINE('',#532,#263);
#224=LINE('',#534,#264);
#225=LINE('',#536,#265);
#226=LINE('',#538,#266);
#227=LINE('',#540,#267);
#228=LINE('',#542,#268);
#229=LINE('',#544,#269);
#230=LINE('',#546,#270);
#231=LINE('',#548,#271);
#232=LINE('',#550,#272);
#233=LINE('',#552,#273);
#234=LINE('',#554,#274);
#235=LINE('',#556,#275);
#236=LINE('',#558,#276);
#237=LINE('',#561,#277);
#238=LINE('',#563,#278);
#239=LINE('',#565,#279);
#240=VECTOR('',#391,1.);
#241=VECTOR('',#392,1.);
#242=VECTOR('',#393,1.);
#243=VECTOR('',#394,1.);
#244=VECTOR('',#397,1.);
#245=VECTOR('',#398,1.);
#246=VECTOR('',#399,1.);
#247=VECTOR('',#402,1.);
#248=VECTOR('',#403,1.);
#249=VECTOR('',#404,1.);
#250=VECTOR('',#407,1.);
#251=VECTOR('',#408,1.);
#252=VECTOR('',#409,1.);
#253=VECTOR('',#412,1.);
#254=VECTOR('',#413,1.);
#255=VECTOR('',#414,1.);
#256=VECTOR('',#417,1.);
#257=VECTOR('',#418,1.);
#258=VECTOR('',#419,1.);
#259=VECTOR('',#420,1.);
#260=VECTOR('',#423,1.);
#261=VECTOR('',#424,1.);
#262=VECTOR('',#425,1.);
#263=VECTOR('',#426,1.);
#264=VECTOR('',#429,1.);
#265=VECTOR('',#430,1.);
#266=VECTOR('',#431,1.);
#267=VECTOR('',#434,1.);
#268=VECTOR('',#435,1.);
#269=VECTOR('',#436,1.);
#270=VECTOR('',#439,1.);
#271=VECTOR('',#440,1.);
#272=VECTOR('',#441,1.);
#273=VECTOR('',#444,1.);
#274=VECTOR('',#445,1.);
#275=VECTOR('',#446,1.);
#276=VECTOR('',#449,1.);
#277=VECTOR('',#450,1.);
#278=VECTOR('',#451,1.);
#279=VECTOR('',#452,1.);
#280=EDGE_LOOP('',(#24,#25,#26,#27));
#281=EDGE_LOOP('',(#28,#29,#30,#31));
#282=EDGE_LOOP('',(#32,#33,#34,#35));
#283=EDGE_LOOP('',(#36,#37,#38,#39));
#284=EDGE_LOOP('',(#40,#41,#42,#43));
#285=EDGE_LOOP('',(#44,#45,#46,#47));
#286=EDGE_LOOP('',(#48,#49,#50,#51));
#287=EDGE_LOOP('',(#52,#53,#54,#55));
#288=EDGE_LOOP('',(#56,#57,#58,#59));
#289=EDGE_LOOP('',(#60,#61,#62,#63));
#290=EDGE_LOOP('',(#64,#65,#66,#67));
#291=EDGE_LOOP('',(#68,#69,#70,#71));
#292=EDGE_LOOP('',(#72,#73,#74,#75,#76,#77,#78,#79,#80,#81,#82,#83,#84,
#85,#86,#87));
#293=EDGE_LOOP('',(#88,#89,#90,#91,#92,#93,#94,#95,#96,#97,#98,#99,#100,
#101,#102,#103));
#294=EDGE_LOOP('',(#104,#105,#106,#107));
#295=EDGE_LOOP('',(#108,#109,#110,#111));
#296=EDGE_LOOP('',(#112,#113,#114,#115));
#297=EDGE_LOOP('',(#116,#117,#118,#119));
#298=FACE_BOUND('',#280,.T.);
#299=FACE_BOUND('',#281,.T.);
#300=FACE_BOUND('',#282,.T.);
#301=FACE_BOUND('',#283,.T.);
#302=FACE_BOUND('',#284,.T.);
#303=FACE_BOUND('',#285,.T.);
#304=FACE_BOUND('',#286,.T.);
#305=FACE_BOUND('',#287,.T.);
#306=FACE_BOUND('',#288,.T.);
#307=FACE_BOUND('',#289,.T.);
#308=FACE_BOUND('',#290,.T.);
#309=FACE_BOUND('',#291,.T.);
#310=FACE_BOUND('',#292,.T.);
#311=FACE_BOUND('',#293,.T.);
#312=FACE_BOUND('',#294,.T.);
#313=FACE_BOUND('',#295,.T.);
#314=FACE_BOUND('',#296,.T.);
#315=FACE_BOUND('',#297,.T.);
#316=PLANE('',#361);
#317=PLANE('',#362);
#318=PLANE('',#363);
#319=PLANE('',#364);
#320=PLANE('',#365);
#321=PLANE('',#366);
#322=PLANE('',#367);
#323=PLANE('',#368);
#324=PLANE('',#369);
#325=PLANE('',#370);
#326=PLANE('',#371);
#327=PLANE('',#372);
#328=PLANE('',#373);
#329=PLANE('',#378);
#330=ADVANCED_FACE('',(#298),#316,.F.);
#331=ADVANCED_FACE('',(#299),#317,.T.);
#332=ADVANCED_FACE('',(#300),#318,.T.);
#333=ADVANCED_FACE('',(#301),#319,.F.);
#334=ADVANCED_FACE('',(#302),#320,.F.);
#335=ADVANCED_FACE('',(#303),#321,.F.);
#336=ADVANCED_FACE('',(#304),#322,.T.);
#337=ADVANCED_FACE('',(#305),#323,.T.);
#338=ADVANCED_FACE('',(#306),#324,.F.);
#339=ADVANCED_FACE('',(#307),#325,.F.);
#340=ADVANCED_FACE('',(#308),#326,.T.);
#341=ADVANCED_FACE('',(#309),#327,.T.);
#342=ADVANCED_FACE('',(#310),#328,.T.);
#343=ADVANCED_FACE('',(#311),#329,.F.);
#344=ADVANCED_FACE('',(#312),#12,.T.);
#345=ADVANCED_FACE('',(#313),#13,.T.);
#346=ADVANCED_FACE('',(#314),#14,.T.);
#347=ADVANCED_FACE('',(#315),#15,.T.);
#348=CLOSED_SHELL('',(#330,#331,#332,#333,#334,#335,#336,#337,#338,#339,
#340,#341,#342,#343,#344,#345,#346,#347));
#349=STYLED_ITEM('',(#350),#357);
#350=PRESENTATION_STYLE_ASSIGNMENT((#351));
#351=SURFACE_STYLE_USAGE(.BOTH.,#352);
#352=SURFACE_SIDE_STYLE('',(#353));
#353=SURFACE_STYLE_FILL_AREA(#354);
#354=FILL_AREA_STYLE('',(#355));
#355=FILL_AREA_STYLE_COLOUR('',#356);
#356=COLOUR_RGB('',0.615686274509804,0.811764705882353,0.929411764705882);
#357=MANIFOLD_SOLID_BREP('Part 1',#348);
#358=SHAPE_DEFINITION_REPRESENTATION(#586,#359);
#359=SHAPE_REPRESENTATION('Part 1',(#360),#581);
#360=AXIS2_PLACEMENT_3D('',#481,#387,#388);
#361=AXIS2_PLACEMENT_3D('',#482,#389,#390);
#362=AXIS2_PLACEMENT_3D('',#491,#395,#396);
#363=AXIS2_PLACEMENT_3D('',#497,#400,#401);
#364=AXIS2_PLACEMENT_3D('',#503,#405,#406);
#365=AXIS2_PLACEMENT_3D('',#509,#410,#411);
#366=AXIS2_PLACEMENT_3D('',#515,#415,#416);
#367=AXIS2_PLACEMENT_3D('',#524,#421,#422);
#368=AXIS2_PLACEMENT_3D('',#533,#427,#428);
#369=AXIS2_PLACEMENT_3D('',#539,#432,#433);
#370=AXIS2_PLACEMENT_3D('',#545,#437,#438);
#371=AXIS2_PLACEMENT_3D('',#551,#442,#443);
#372=AXIS2_PLACEMENT_3D('',#557,#447,#448);
#373=AXIS2_PLACEMENT_3D('',#566,#453,#454);
#374=AXIS2_PLACEMENT_3D('',#567,#455,#456);
#375=AXIS2_PLACEMENT_3D('',#568,#457,#458);
#376=AXIS2_PLACEMENT_3D('',#569,#459,#460);
#377=AXIS2_PLACEMENT_3D('',#570,#461,#462);
#378=AXIS2_PLACEMENT_3D('',#571,#463,#464);
#379=AXIS2_PLACEMENT_3D('',#572,#465,#466);
#380=AXIS2_PLACEMENT_3D('',#573,#467,#468);
#381=AXIS2_PLACEMENT_3D('',#574,#469,#470);
#382=AXIS2_PLACEMENT_3D('',#575,#471,#472);
#383=AXIS2_PLACEMENT_3D('',#576,#473,#474);
#384=AXIS2_PLACEMENT_3D('',#577,#475,#476);
#385=AXIS2_PLACEMENT_3D('',#578,#477,#478);
#386=AXIS2_PLACEMENT_3D('',#579,#479,#480);
#387=DIRECTION('',(0.,0.,1.));
#388=DIRECTION('',(1.,0.,0.));
#389=DIRECTION('',(-1.,0.,0.));
#390=DIRECTION('',(0.,0.,1.));
#391=DIRECTION('',(0.,1.,0.));
#392=DIRECTION('',(0.,0.,-1.));
#393=DIRECTION('',(0.,1.,0.));
#394=DIRECTION('',(0.,0.,-1.));
#395=DIRECTION('',(0.,-1.,0.));
#396=DIRECTION('',(0.,0.,-1.));
#397=DIRECTION('',(-1.,0.,0.));
#398=DIRECTION('',(0.,0.,-1.));
#399=DIRECTION('',(-1.,0.,0.));
#400=DIRECTION('',(1.,0.,0.));
#401=DIRECTION('',(0.,0.,-1.));
#402=DIRECTION('',(0.,-1.,0.));
#403=DIRECTION('',(0.,0.,-1.));
#404=DIRECTION('',(0.,-1.,0.));
#405=DIRECTION('',(0.,-1.,0.));
#406=DIRECTION('',(0.,0.,-1.));
#407=DIRECTION('',(-1.,0.,0.));
#408=DIRECTION('',(0.,0.,-1.));
#409=DIRECTION('',(-1.,0.,0.));
#410=DIRECTION('',(-1.,0.,0.));
#411=DIRECTION('',(0.,0.,1.));
#412=DIRECTION('',(0.,1.,0.));
#413=DIRECTION('',(0.,0.,-1.));
#414=DIRECTION('',(0.,1.,0.));
#415=DIRECTION('',(0.,-1.,0.));
#416=DIRECTION('',(0.,0.,-1.));
#417=DIRECTION('',(-1.,0.,0.));
#418=DIRECTION('',(0.,0.,-1.));
#419=DIRECTION('',(-1.,0.,0.));
#420=DIRECTION('',(0.,0.,-1.));
#421=DIRECTION('',(-1.,0.,0.));
#422=DIRECTION('',(0.,0.,1.));
#423=DIRECTION('',(0.,1.,0.));
#424=DIRECTION('',(0.,0.,-1.));
#425=DIRECTION('',(0.,1.,0.));
#426=DIRECTION('',(0.,0.,-1.));
#427=DIRECTION('',(0.,1.,0.));
#428=DIRECTION('',(0.,0.,1.));
#429=DIRECTION('',(1.,0.,0.));
#430=DIRECTION('',(0.,0.,-1.));
#431=DIRECTION('',(1.,0.,0.));
#432=DIRECTION('',(1.,0.,0.));
#433=DIRECTION('',(0.,0.,-1.));
#434=DIRECTION('',(0.,-1.,0.));
#435=DIRECTION('',(0.,0.,-1.));
#436=DIRECTION('',(0.,-1.,0.));
#437=DIRECTION('',(0.,1.,0.));
#438=DIRECTION('',(0.,0.,1.));
#439=DIRECTION('',(1.,0.,0.));
#440=DIRECTION('',(0.,0.,-1.));
#441=DIRECTION('',(1.,0.,0.));
#442=DIRECTION('',(-1.,-4.7526670574707E-16,0.));
#443=DIRECTION('',(4.7526670574707E-16,-1.,0.));
#444=DIRECTION('',(-4.7526670574707E-16,1.,0.));
#445=DIRECTION('',(0.,0.,-1.));
#446=DIRECTION('',(-4.7526670574707E-16,1.,0.));
#447=DIRECTION('',(0.,-1.,0.));
#448=DIRECTION('',(0.,0.,-1.));
#449=DIRECTION('',(-1.,0.,0.));
#450=DIRECTION('',(0.,0.,-1.));
#451=DIRECTION('',(-1.,0.,0.));
#452=DIRECTION('',(0.,0.,-1.));
#453=DIRECTION('',(0.,0.,1.));
#454=DIRECTION('',(1.,0.,0.));
#455=DIRECTION('',(0.,0.,1.));
#456=DIRECTION('',(1.,0.,0.));
#457=DIRECTION('',(0.,0.,1.));
#458=DIRECTION('',(1.,0.,0.));
#459=DIRECTION('',(0.,0.,1.));
#460=DIRECTION('',(1.,0.,0.));
#461=DIRECTION('',(0.,0.,1.));
#462=DIRECTION('',(1.,0.,0.));
#463=DIRECTION('',(0.,0.,1.));
#464=DIRECTION('',(1.,0.,0.));
#465=DIRECTION('',(0.,0.,1.));
#466=DIRECTION('',(1.,0.,0.));
#467=DIRECTION('',(0.,0.,1.));
#468=DIRECTION('',(1.,0.,0.));
#469=DIRECTION('',(0.,0.,1.));
#470=DIRECTION('',(1.,0.,0.));
#471=DIRECTION('',(0.,0.,1.));
#472=DIRECTION('',(1.,0.,0.));
#473=DIRECTION('',(0.,0.,-1.));
#474=DIRECTION('',(-1.,0.,0.));
#475=DIRECTION('',(0.,0.,1.));
#476=DIRECTION('',(1.,0.,0.));
#477=DIRECTION('',(0.,0.,-1.));
#478=DIRECTION('',(-1.,0.,0.));
#479=DIRECTION('',(0.,0.,1.));
#480=DIRECTION('',(1.,0.,0.));
#481=CARTESIAN_POINT('',(0.,0.,0.));
#482=CARTESIAN_POINT('',(0.,0.001825,0.004));
#483=CARTESIAN_POINT('',(0.,0.001825,0.004));
#484=CARTESIAN_POINT('',(0.,0.0005,0.004));
#485=CARTESIAN_POINT('',(0.,0.00365,0.004));
#486=CARTESIAN_POINT('',(0.,0.0005,0.));
#487=CARTESIAN_POINT('',(0.,0.0005,0.));
#488=CARTESIAN_POINT('',(0.,0.001825,0.));
#489=CARTESIAN_POINT('',(0.,0.00365,0.));
#490=CARTESIAN_POINT('',(0.,0.00365,0.004));
#491=CARTESIAN_POINT('',(0.0002,0.00365,0.004));
#492=CARTESIAN_POINT('',(0.0002,0.00365,0.));
#493=CARTESIAN_POINT('',(0.0004,0.00365,0.));
#494=CARTESIAN_POINT('',(0.0004,0.00365,0.004));
#495=CARTESIAN_POINT('',(0.0004,0.00365,0.004));
#496=CARTESIAN_POINT('',(0.0002,0.00365,0.004));
#497=CARTESIAN_POINT('',(0.0004,0.0044,0.004));
#498=CARTESIAN_POINT('',(0.0004,0.0044,0.));
#499=CARTESIAN_POINT('',(0.0004,0.00665,0.));
#500=CARTESIAN_POINT('',(0.0004,0.00665,0.004));
#501=CARTESIAN_POINT('',(0.0004,0.00665,0.004));
#502=CARTESIAN_POINT('',(0.0004,0.0044,0.004));
#503=CARTESIAN_POINT('',(0.0002,0.00665,0.004));
#504=CARTESIAN_POINT('',(0.0002,0.00665,0.));
#505=CARTESIAN_POINT('',(0.,0.00665,0.));
#506=CARTESIAN_POINT('',(0.,0.00665,0.004));
#507=CARTESIAN_POINT('',(0.,0.00665,0.004));
#508=CARTESIAN_POINT('',(0.0002,0.00665,0.004));
#509=CARTESIAN_POINT('',(0.,0.008475,0.004));
#510=CARTESIAN_POINT('',(0.,0.008475,0.));
#511=CARTESIAN_POINT('',(0.,0.0098,0.));
#512=CARTESIAN_POINT('',(0.,0.0098,0.004));
#513=CARTESIAN_POINT('',(0.,0.0098,0.004));
#514=CARTESIAN_POINT('',(0.,0.008475,0.004));
#515=CARTESIAN_POINT('',(-0.0054,0.0103,0.004));
#516=CARTESIAN_POINT('',(-0.0054,0.0103,0.004));
#517=CARTESIAN_POINT('',(-0.0005,0.0103,0.004));
#518=CARTESIAN_POINT('',(-0.0103,0.0103,0.004));
#519=CARTESIAN_POINT('',(-0.0005,0.0103,0.004));
#520=CARTESIAN_POINT('',(-0.0005,0.0103,0.));
#521=CARTESIAN_POINT('',(-0.0054,0.0103,0.));
#522=CARTESIAN_POINT('',(-0.0103,0.0103,0.));
#523=CARTESIAN_POINT('',(-0.0103,0.0103,0.004));
#524=CARTESIAN_POINT('',(-0.0108,0.008475,0.004));
#525=CARTESIAN_POINT('',(-0.0108,0.008475,0.004));
#526=CARTESIAN_POINT('',(-0.0108,0.00665,0.004));
#527=CARTESIAN_POINT('',(-0.0108,0.0098,0.004));
#528=CARTESIAN_POINT('',(-0.0108,0.0098,0.));
#529=CARTESIAN_POINT('',(-0.0108,0.0098,0.));
#530=CARTESIAN_POINT('',(-0.0108,0.008475,0.));
#531=CARTESIAN_POINT('',(-0.0108,0.00665,0.));
#532=CARTESIAN_POINT('',(-0.0108,0.00665,0.004));
#533=CARTESIAN_POINT('',(-0.011,0.00665,0.004));
#534=CARTESIAN_POINT('',(-0.011,0.00665,0.));
#535=CARTESIAN_POINT('',(-0.0112,0.00665,0.));
#536=CARTESIAN_POINT('',(-0.0112,0.00665,0.004));
#537=CARTESIAN_POINT('',(-0.0112,0.00665,0.004));
#538=CARTESIAN_POINT('',(-0.011,0.00665,0.004));
#539=CARTESIAN_POINT('',(-0.0112,0.0044,0.004));
#540=CARTESIAN_POINT('',(-0.0112,0.0044,0.));
#541=CARTESIAN_POINT('',(-0.0112,0.00365,0.));
#542=CARTESIAN_POINT('',(-0.0112,0.00365,0.004));
#543=CARTESIAN_POINT('',(-0.0112,0.00365,0.004));
#544=CARTESIAN_POINT('',(-0.0112,0.0044,0.004));
#545=CARTESIAN_POINT('',(-0.011,0.00365,0.004));
#546=CARTESIAN_POINT('',(-0.011,0.00365,0.));
#547=CARTESIAN_POINT('',(-0.0108,0.00365,0.));
#548=CARTESIAN_POINT('',(-0.0108,0.00365,0.004));
#549=CARTESIAN_POINT('',(-0.0108,0.00365,0.004));
#550=CARTESIAN_POINT('',(-0.011,0.00365,0.004));
#551=CARTESIAN_POINT('',(-0.0108,0.001825,0.004));
#552=CARTESIAN_POINT('',(-0.0108,0.001825,0.));
#553=CARTESIAN_POINT('',(-0.0108,0.0005,0.));
#554=CARTESIAN_POINT('',(-0.0108,0.0005,0.004));
#555=CARTESIAN_POINT('',(-0.0108,0.0005,0.004));
#556=CARTESIAN_POINT('',(-0.0108,0.001825,0.004));
#557=CARTESIAN_POINT('',(-0.0054,0.,0.004));
#558=CARTESIAN_POINT('',(-0.0054,0.,0.004));
#559=CARTESIAN_POINT('',(-0.0005,0.,0.004));
#560=CARTESIAN_POINT('',(-0.0103,0.,0.004));
#561=CARTESIAN_POINT('',(-0.0103,0.,0.004));
#562=CARTESIAN_POINT('',(-0.0103,0.,0.));
#563=CARTESIAN_POINT('',(-0.0054,0.,0.));
#564=CARTESIAN_POINT('',(-0.0005,0.,0.));
#565=CARTESIAN_POINT('',(-0.0005,0.,0.004));
#566=CARTESIAN_POINT('',(-0.0054,0.00515,0.004));
#567=CARTESIAN_POINT('',(-0.0005,0.0098,0.004));
#568=CARTESIAN_POINT('',(-0.0103,0.0098,0.004));
#569=CARTESIAN_POINT('',(-0.0103,0.0005,0.004));
#570=CARTESIAN_POINT('',(-0.0005,0.0005,0.004));
#571=CARTESIAN_POINT('',(-0.0054,0.00515,0.));
#572=CARTESIAN_POINT('',(-0.0005,0.0098,0.));
#573=CARTESIAN_POINT('',(-0.0005,0.0005,0.));
#574=CARTESIAN_POINT('',(-0.0103,0.0005,0.));
#575=CARTESIAN_POINT('',(-0.0103,0.0098,0.));
#576=CARTESIAN_POINT('',(-0.0005,0.0098,0.004));
#577=CARTESIAN_POINT('',(-0.0103,0.0098,0.004));
#578=CARTESIAN_POINT('',(-0.0103,0.0005,0.004));
#579=CARTESIAN_POINT('',(-0.0005,0.0005,0.004));
#580=MECHANICAL_DESIGN_GEOMETRIC_PRESENTATION_REPRESENTATION('',(#349),
#581);
#581=(
GEOMETRIC_REPRESENTATION_CONTEXT(3)
GLOBAL_UNCERTAINTY_ASSIGNED_CONTEXT((#582))
GLOBAL_UNIT_ASSIGNED_CONTEXT((#585,#584,#583))
REPRESENTATION_CONTEXT('Part 1','TOP_LEVEL_ASSEMBLY_PART')
);
#582=UNCERTAINTY_MEASURE_WITH_UNIT(LENGTH_MEASURE(1.E-8),#585,
'DISTANCE_ACCURACY_VALUE','Maximum Tolerance applied to model');
#583=(
NAMED_UNIT(*)
SI_UNIT($,.STERADIAN.)
SOLID_ANGLE_UNIT()
);
#584=(
NAMED_UNIT(*)
PLANE_ANGLE_UNIT()
SI_UNIT($,.RADIAN.)
);
#585=(
LENGTH_UNIT()
NAMED_UNIT(*)
SI_UNIT($,.METRE.)
);
#586=PRODUCT_DEFINITION_SHAPE('','',#587);
#587=PRODUCT_DEFINITION('','',#589,#588);
#588=PRODUCT_DEFINITION_CONTEXT('',#595,'design');
#589=PRODUCT_DEFINITION_FORMATION_WITH_SPECIFIED_SOURCE('','',#591,
 .NOT_KNOWN.);
#590=PRODUCT_RELATED_PRODUCT_CATEGORY('','',(#591));
#591=PRODUCT('Part 1','Part 1','Part 1',(#593));
#592=PRODUCT_CATEGORY('','');
#593=PRODUCT_CONTEXT('',#595,'mechanical');
#594=APPLICATION_PROTOCOL_DEFINITION('international standard',
'ap242_managed_model_based_3d_engineering',2020,#595);
#595=APPLICATION_CONTEXT('managed model based 3d engineering');
ENDSEC;
END-ISO-10303-21;
