ISO-10303-21;
HEADER;
/* Generated by software containing ST-Developer
 * from STEP Tools, Inc. (www.steptools.com) 
 */
/* OPTION: using custom renumber hook */

FILE_DESCRIPTION(
/* description */ ('STEP AP214'),
/* implementation_level */ '2;1');

FILE_NAME(
/* name */ 'psolqas_18116_27',
/* time_stamp */ '2024-08-12T12:59:06+02:00',
/* author */ ('License CC BY-ND 4.0'),
/* organization */ ('CADENAS'),
/* preprocessor_version */ 'ST-DEVELOPER v19.3',
/* originating_system */ 'PARTsolutions',
/* authorisation */ '  ');

FILE_SCHEMA (('AUTOMOTIVE_DESIGN {1 0 10303 214 3 1 1}'));
ENDSEC;

DATA;
#10=PROPERTY_DEFINITION_REPRESENTATION(#14,#12);
#11=PROPERTY_DEFINITION_REPRESENTATION(#15,#13);
#12=REPRESENTATION('',(#16),#940);
#13=REPRESENTATION('',(#17),#940);
#14=PROPERTY_DEFINITION('pmi validation property','',#945);
#15=PROPERTY_DEFINITION('pmi validation property','',#945);
#16=VALUE_REPRESENTATION_ITEM('number of annotations',COUNT_MEASURE(0.));
#17=VALUE_REPRESENTATION_ITEM('number of views',COUNT_MEASURE(0.));
#18=SHAPE_REPRESENTATION_RELATIONSHIP('','',#407,#19);
#19=ADVANCED_BREP_SHAPE_REPRESENTATION('',(#405),#940);
#20=LINE('',#844,#52);
#21=LINE('',#848,#53);
#22=LINE('',#853,#54);
#23=LINE('',#857,#55);
#24=LINE('',#862,#56);
#25=LINE('',#866,#57);
#26=LINE('',#871,#58);
#27=LINE('',#875,#59);
#28=LINE('',#877,#60);
#29=LINE('',#878,#61);
#30=LINE('',#880,#62);
#31=LINE('',#882,#63);
#32=LINE('',#884,#64);
#33=LINE('',#885,#65);
#34=LINE('',#887,#66);
#35=LINE('',#889,#67);
#36=LINE('',#894,#68);
#37=LINE('',#898,#69);
#38=LINE('',#902,#70);
#39=LINE('',#906,#71);
#40=LINE('',#908,#72);
#41=LINE('',#911,#73);
#42=LINE('',#912,#74);
#43=LINE('',#916,#75);
#44=LINE('',#918,#76);
#45=LINE('',#920,#77);
#46=LINE('',#924,#78);
#47=LINE('',#926,#79);
#48=LINE('',#928,#80);
#49=LINE('',#932,#81);
#50=LINE('',#934,#82);
#51=LINE('',#936,#83);
#52=VECTOR('',#454,1.);
#53=VECTOR('',#457,1.);
#54=VECTOR('',#462,1.);
#55=VECTOR('',#465,1.);
#56=VECTOR('',#470,1.);
#57=VECTOR('',#473,1.);
#58=VECTOR('',#478,1.);
#59=VECTOR('',#481,1.);
#60=VECTOR('',#484,1.);
#61=VECTOR('',#485,1.);
#62=VECTOR('',#488,1.);
#63=VECTOR('',#491,1.);
#64=VECTOR('',#494,1.);
#65=VECTOR('',#495,1.);
#66=VECTOR('',#498,1.);
#67=VECTOR('',#501,1.);
#68=VECTOR('',#506,1.);
#69=VECTOR('',#509,1.);
#70=VECTOR('',#512,1.);
#71=VECTOR('',#515,1.);
#72=VECTOR('',#518,1.);
#73=VECTOR('',#519,1.);
#74=VECTOR('',#520,1.);
#75=VECTOR('',#525,1.);
#76=VECTOR('',#528,1.);
#77=VECTOR('',#529,1.);
#78=VECTOR('',#534,1.);
#79=VECTOR('',#537,1.);
#80=VECTOR('',#538,1.);
#81=VECTOR('',#543,1.);
#82=VECTOR('',#546,1.);
#83=VECTOR('',#547,1.);
#84=CIRCLE('',#411,0.0003);
#85=CIRCLE('',#412,0.0003);
#86=CIRCLE('',#414,0.0003);
#87=CIRCLE('',#415,0.0003);
#88=CIRCLE('',#417,0.0003);
#89=CIRCLE('',#418,0.0003);
#90=CIRCLE('',#420,0.0003);
#91=CIRCLE('',#421,0.0003);
#92=CIRCLE('',#429,0.0003);
#93=CIRCLE('',#430,0.0003);
#94=CIRCLE('',#431,0.0003);
#95=CIRCLE('',#432,0.0003);
#96=CIRCLE('',#435,0.0003);
#97=CIRCLE('',#438,0.0003);
#98=CIRCLE('',#441,0.0003);
#99=CIRCLE('',#444,0.0003);
#100=CYLINDRICAL_SURFACE('',#410,0.0003);
#101=CYLINDRICAL_SURFACE('',#413,0.0003);
#102=CYLINDRICAL_SURFACE('',#416,0.0003);
#103=CYLINDRICAL_SURFACE('',#419,0.0003);
#104=CYLINDRICAL_SURFACE('',#434,0.0003);
#105=CYLINDRICAL_SURFACE('',#437,0.0003);
#106=CYLINDRICAL_SURFACE('',#440,0.0003);
#107=CYLINDRICAL_SURFACE('',#443,0.0003);
#108=PLANE('',#409);
#109=PLANE('',#422);
#110=PLANE('',#423);
#111=PLANE('',#424);
#112=PLANE('',#425);
#113=PLANE('',#426);
#114=PLANE('',#427);
#115=PLANE('',#428);
#116=PLANE('',#433);
#117=PLANE('',#436);
#118=PLANE('',#439);
#119=PLANE('',#442);
#120=PLANE('',#445);
#121=ORIENTED_EDGE('',*,*,#225,.F.);
#122=ORIENTED_EDGE('',*,*,#226,.F.);
#123=ORIENTED_EDGE('',*,*,#227,.F.);
#124=ORIENTED_EDGE('',*,*,#228,.F.);
#125=ORIENTED_EDGE('',*,*,#227,.T.);
#126=ORIENTED_EDGE('',*,*,#225,.T.);
#127=ORIENTED_EDGE('',*,*,#228,.T.);
#128=ORIENTED_EDGE('',*,*,#229,.F.);
#129=ORIENTED_EDGE('',*,*,#230,.T.);
#130=ORIENTED_EDGE('',*,*,#231,.F.);
#131=ORIENTED_EDGE('',*,*,#232,.F.);
#132=ORIENTED_EDGE('',*,*,#233,.F.);
#133=ORIENTED_EDGE('',*,*,#234,.T.);
#134=ORIENTED_EDGE('',*,*,#235,.F.);
#135=ORIENTED_EDGE('',*,*,#236,.F.);
#136=ORIENTED_EDGE('',*,*,#237,.F.);
#137=ORIENTED_EDGE('',*,*,#238,.T.);
#138=ORIENTED_EDGE('',*,*,#239,.F.);
#139=ORIENTED_EDGE('',*,*,#240,.F.);
#140=ORIENTED_EDGE('',*,*,#241,.F.);
#141=ORIENTED_EDGE('',*,*,#242,.T.);
#142=ORIENTED_EDGE('',*,*,#243,.F.);
#143=ORIENTED_EDGE('',*,*,#244,.F.);
#144=ORIENTED_EDGE('',*,*,#245,.T.);
#145=ORIENTED_EDGE('',*,*,#236,.T.);
#146=ORIENTED_EDGE('',*,*,#246,.T.);
#147=ORIENTED_EDGE('',*,*,#232,.T.);
#148=ORIENTED_EDGE('',*,*,#247,.T.);
#149=ORIENTED_EDGE('',*,*,#233,.T.);
#150=ORIENTED_EDGE('',*,*,#245,.F.);
#151=ORIENTED_EDGE('',*,*,#231,.T.);
#152=ORIENTED_EDGE('',*,*,#246,.F.);
#153=ORIENTED_EDGE('',*,*,#235,.T.);
#154=ORIENTED_EDGE('',*,*,#248,.T.);
#155=ORIENTED_EDGE('',*,*,#229,.T.);
#156=ORIENTED_EDGE('',*,*,#249,.T.);
#157=ORIENTED_EDGE('',*,*,#244,.T.);
#158=ORIENTED_EDGE('',*,*,#250,.T.);
#159=ORIENTED_EDGE('',*,*,#240,.T.);
#160=ORIENTED_EDGE('',*,*,#250,.F.);
#161=ORIENTED_EDGE('',*,*,#243,.T.);
#162=ORIENTED_EDGE('',*,*,#251,.T.);
#163=ORIENTED_EDGE('',*,*,#237,.T.);
#164=ORIENTED_EDGE('',*,*,#252,.T.);
#165=ORIENTED_EDGE('',*,*,#241,.T.);
#166=ORIENTED_EDGE('',*,*,#249,.F.);
#167=ORIENTED_EDGE('',*,*,#239,.T.);
#168=ORIENTED_EDGE('',*,*,#253,.T.);
#169=ORIENTED_EDGE('',*,*,#254,.T.);
#170=ORIENTED_EDGE('',*,*,#255,.T.);
#171=ORIENTED_EDGE('',*,*,#256,.T.);
#172=ORIENTED_EDGE('',*,*,#257,.T.);
#173=ORIENTED_EDGE('',*,*,#258,.T.);
#174=ORIENTED_EDGE('',*,*,#259,.T.);
#175=ORIENTED_EDGE('',*,*,#260,.T.);
#176=ORIENTED_EDGE('',*,*,#261,.T.);
#177=ORIENTED_EDGE('',*,*,#262,.F.);
#178=ORIENTED_EDGE('',*,*,#260,.F.);
#179=ORIENTED_EDGE('',*,*,#263,.T.);
#180=ORIENTED_EDGE('',*,*,#264,.T.);
#181=ORIENTED_EDGE('',*,*,#263,.F.);
#182=ORIENTED_EDGE('',*,*,#259,.F.);
#183=ORIENTED_EDGE('',*,*,#265,.T.);
#184=ORIENTED_EDGE('',*,*,#266,.T.);
#185=ORIENTED_EDGE('',*,*,#265,.F.);
#186=ORIENTED_EDGE('',*,*,#258,.F.);
#187=ORIENTED_EDGE('',*,*,#267,.T.);
#188=ORIENTED_EDGE('',*,*,#268,.T.);
#189=ORIENTED_EDGE('',*,*,#267,.F.);
#190=ORIENTED_EDGE('',*,*,#257,.F.);
#191=ORIENTED_EDGE('',*,*,#269,.T.);
#192=ORIENTED_EDGE('',*,*,#270,.T.);
#193=ORIENTED_EDGE('',*,*,#269,.F.);
#194=ORIENTED_EDGE('',*,*,#256,.F.);
#195=ORIENTED_EDGE('',*,*,#271,.T.);
#196=ORIENTED_EDGE('',*,*,#272,.T.);
#197=ORIENTED_EDGE('',*,*,#271,.F.);
#198=ORIENTED_EDGE('',*,*,#255,.F.);
#199=ORIENTED_EDGE('',*,*,#273,.T.);
#200=ORIENTED_EDGE('',*,*,#274,.T.);
#201=ORIENTED_EDGE('',*,*,#273,.F.);
#202=ORIENTED_EDGE('',*,*,#254,.F.);
#203=ORIENTED_EDGE('',*,*,#275,.T.);
#204=ORIENTED_EDGE('',*,*,#276,.T.);
#205=ORIENTED_EDGE('',*,*,#275,.F.);
#206=ORIENTED_EDGE('',*,*,#253,.F.);
#207=ORIENTED_EDGE('',*,*,#262,.T.);
#208=ORIENTED_EDGE('',*,*,#248,.F.);
#209=ORIENTED_EDGE('',*,*,#234,.F.);
#210=ORIENTED_EDGE('',*,*,#247,.F.);
#211=ORIENTED_EDGE('',*,*,#230,.F.);
#212=ORIENTED_EDGE('',*,*,#276,.F.);
#213=ORIENTED_EDGE('',*,*,#261,.F.);
#214=ORIENTED_EDGE('',*,*,#264,.F.);
#215=ORIENTED_EDGE('',*,*,#266,.F.);
#216=ORIENTED_EDGE('',*,*,#268,.F.);
#217=ORIENTED_EDGE('',*,*,#270,.F.);
#218=ORIENTED_EDGE('',*,*,#272,.F.);
#219=ORIENTED_EDGE('',*,*,#274,.F.);
#220=ORIENTED_EDGE('',*,*,#252,.F.);
#221=ORIENTED_EDGE('',*,*,#238,.F.);
#222=ORIENTED_EDGE('',*,*,#251,.F.);
#223=ORIENTED_EDGE('',*,*,#242,.F.);
#224=ORIENTED_EDGE('',*,*,#226,.T.);
#225=EDGE_CURVE('',#277,#277,#313,.F.);
#226=EDGE_CURVE('',#278,#278,#314,.T.);
#227=EDGE_CURVE('',#279,#279,#315,.T.);
#228=EDGE_CURVE('',#280,#280,#316,.F.);
#229=EDGE_CURVE('',#281,#282,#84,.T.);
#230=EDGE_CURVE('',#281,#283,#20,.T.);
#231=EDGE_CURVE('',#284,#283,#85,.T.);
#232=EDGE_CURVE('',#282,#284,#21,.T.);
#233=EDGE_CURVE('',#285,#286,#86,.T.);
#234=EDGE_CURVE('',#285,#287,#22,.T.);
#235=EDGE_CURVE('',#288,#287,#87,.T.);
#236=EDGE_CURVE('',#286,#288,#23,.T.);
#237=EDGE_CURVE('',#289,#290,#88,.T.);
#238=EDGE_CURVE('',#289,#291,#24,.T.);
#239=EDGE_CURVE('',#292,#291,#89,.T.);
#240=EDGE_CURVE('',#290,#292,#25,.T.);
#241=EDGE_CURVE('',#293,#294,#90,.T.);
#242=EDGE_CURVE('',#293,#295,#26,.T.);
#243=EDGE_CURVE('',#296,#295,#91,.T.);
#244=EDGE_CURVE('',#294,#296,#27,.T.);
#245=EDGE_CURVE('',#284,#286,#28,.T.);
#246=EDGE_CURVE('',#288,#282,#29,.T.);
#247=EDGE_CURVE('',#283,#285,#30,.T.);
#248=EDGE_CURVE('',#287,#281,#31,.T.);
#249=EDGE_CURVE('',#292,#294,#32,.T.);
#250=EDGE_CURVE('',#296,#290,#33,.T.);
#251=EDGE_CURVE('',#295,#289,#34,.T.);
#252=EDGE_CURVE('',#291,#293,#35,.T.);
#253=EDGE_CURVE('',#297,#298,#92,.T.);
#254=EDGE_CURVE('',#298,#299,#36,.T.);
#255=EDGE_CURVE('',#299,#300,#93,.T.);
#256=EDGE_CURVE('',#300,#301,#37,.T.);
#257=EDGE_CURVE('',#301,#302,#94,.T.);
#258=EDGE_CURVE('',#302,#303,#38,.T.);
#259=EDGE_CURVE('',#303,#304,#95,.T.);
#260=EDGE_CURVE('',#304,#297,#39,.T.);
#261=EDGE_CURVE('',#305,#306,#40,.T.);
#262=EDGE_CURVE('',#297,#306,#41,.T.);
#263=EDGE_CURVE('',#304,#305,#42,.T.);
#264=EDGE_CURVE('',#307,#305,#96,.T.);
#265=EDGE_CURVE('',#303,#307,#43,.T.);
#266=EDGE_CURVE('',#308,#307,#44,.T.);
#267=EDGE_CURVE('',#302,#308,#45,.T.);
#268=EDGE_CURVE('',#309,#308,#97,.T.);
#269=EDGE_CURVE('',#301,#309,#46,.T.);
#270=EDGE_CURVE('',#310,#309,#47,.T.);
#271=EDGE_CURVE('',#300,#310,#48,.T.);
#272=EDGE_CURVE('',#311,#310,#98,.T.);
#273=EDGE_CURVE('',#299,#311,#49,.T.);
#274=EDGE_CURVE('',#312,#311,#50,.T.);
#275=EDGE_CURVE('',#298,#312,#51,.T.);
#276=EDGE_CURVE('',#306,#312,#99,.T.);
#277=VERTEX_POINT('',#644);
#278=VERTEX_POINT('',#671);
#279=VERTEX_POINT('',#808);
#280=VERTEX_POINT('',#824);
#281=VERTEX_POINT('',#842);
#282=VERTEX_POINT('',#843);
#283=VERTEX_POINT('',#845);
#284=VERTEX_POINT('',#847);
#285=VERTEX_POINT('',#851);
#286=VERTEX_POINT('',#852);
#287=VERTEX_POINT('',#854);
#288=VERTEX_POINT('',#856);
#289=VERTEX_POINT('',#860);
#290=VERTEX_POINT('',#861);
#291=VERTEX_POINT('',#863);
#292=VERTEX_POINT('',#865);
#293=VERTEX_POINT('',#869);
#294=VERTEX_POINT('',#870);
#295=VERTEX_POINT('',#872);
#296=VERTEX_POINT('',#874);
#297=VERTEX_POINT('',#892);
#298=VERTEX_POINT('',#893);
#299=VERTEX_POINT('',#895);
#300=VERTEX_POINT('',#897);
#301=VERTEX_POINT('',#899);
#302=VERTEX_POINT('',#901);
#303=VERTEX_POINT('',#903);
#304=VERTEX_POINT('',#905);
#305=VERTEX_POINT('',#909);
#306=VERTEX_POINT('',#910);
#307=VERTEX_POINT('',#915);
#308=VERTEX_POINT('',#919);
#309=VERTEX_POINT('',#923);
#310=VERTEX_POINT('',#927);
#311=VERTEX_POINT('',#931);
#312=VERTEX_POINT('',#935);
#313=B_SPLINE_CURVE_WITH_KNOTS('',3,(#633,#634,#635,#636,#637,#638,#639,
#640,#641,#642,#643),.UNSPECIFIED.,.T.,.F.,(1,1,1,1,1,1,1,1,1,1,1,1,1,1,
1),(-0.375,-0.25,-0.125,-1.11022302462516E-16,0.125,0.25,0.375,0.5,0.625,
0.75,0.875,1.,1.125,1.25,1.375),.UNSPECIFIED.);
#314=B_SPLINE_CURVE_WITH_KNOTS('',3,(#645,#646,#647,#648,#649,#650,#651,
#652,#653,#654,#655,#656,#657,#658,#659,#660,#661,#662,#663,#664,#665,#666,
#667,#668,#669,#670),.UNSPECIFIED.,.T.,.F.,(4,2,2,2,2,2,2,2,2,2,2,2,4),
(0.,0.000187435695743365,0.00037487139148673,0.00074974278297346,0.00112461417446019,
0.00131204987020356,0.00149948556594692,0.00168692126169029,0.00187435695743365,
0.00224922834892038,0.00262409974040711,0.00281153543615048,0.00299897113189384),
 .UNSPECIFIED.);
#315=B_SPLINE_CURVE_WITH_KNOTS('',3,(#774,#775,#776,#777,#778,#779,#780,
#781,#782,#783,#784,#785,#786,#787,#788,#789,#790,#791,#792,#793,#794,#795,
#796,#797,#798,#799,#800,#801,#802,#803,#804,#805,#806,#807),
 .UNSPECIFIED.,.T.,.F.,(4,2,2,2,2,2,2,2,2,2,2,2,2,2,2,2,4),(0.,5.48143430481225E-5,
0.000109628686096245,0.00021925737219249,0.00043851474438498,0.00065777211657747,
0.000767400802673715,0.000822215145721837,0.00087702948876996,0.000931843831818082,
0.000986658174866205,0.00109628686096245,0.00131554423315494,0.00153480160534743,
0.00164443029144367,0.0016992446344918,0.00175405897753992),
 .UNSPECIFIED.);
#316=B_SPLINE_CURVE_WITH_KNOTS('',3,(#809,#810,#811,#812,#813,#814,#815,
#816,#817,#818,#819,#820,#821,#822,#823),.UNSPECIFIED.,.T.,.F.,(1,1,1,1,
1,1,1,1,1,1,1,1,1,1,1,1,1,1,1),(-0.25,-0.125,-0.0625,0.,0.0625,0.125,0.25,
0.375,0.4375,0.5,0.5625,0.625,0.75,0.875,0.9375,1.,1.0625,1.125,1.25),
 .UNSPECIFIED.);
#317=EDGE_LOOP('',(#121));
#318=EDGE_LOOP('',(#122));
#319=EDGE_LOOP('',(#123));
#320=EDGE_LOOP('',(#124));
#321=EDGE_LOOP('',(#125));
#322=EDGE_LOOP('',(#126));
#323=EDGE_LOOP('',(#127));
#324=EDGE_LOOP('',(#128,#129,#130,#131));
#325=EDGE_LOOP('',(#132,#133,#134,#135));
#326=EDGE_LOOP('',(#136,#137,#138,#139));
#327=EDGE_LOOP('',(#140,#141,#142,#143));
#328=EDGE_LOOP('',(#144,#145,#146,#147));
#329=EDGE_LOOP('',(#148,#149,#150,#151));
#330=EDGE_LOOP('',(#152,#153,#154,#155));
#331=EDGE_LOOP('',(#156,#157,#158,#159));
#332=EDGE_LOOP('',(#160,#161,#162,#163));
#333=EDGE_LOOP('',(#164,#165,#166,#167));
#334=EDGE_LOOP('',(#168,#169,#170,#171,#172,#173,#174,#175));
#335=EDGE_LOOP('',(#176,#177,#178,#179));
#336=EDGE_LOOP('',(#180,#181,#182,#183));
#337=EDGE_LOOP('',(#184,#185,#186,#187));
#338=EDGE_LOOP('',(#188,#189,#190,#191));
#339=EDGE_LOOP('',(#192,#193,#194,#195));
#340=EDGE_LOOP('',(#196,#197,#198,#199));
#341=EDGE_LOOP('',(#200,#201,#202,#203));
#342=EDGE_LOOP('',(#204,#205,#206,#207));
#343=EDGE_LOOP('',(#208,#209,#210,#211));
#344=EDGE_LOOP('',(#212,#213,#214,#215,#216,#217,#218,#219));
#345=EDGE_LOOP('',(#220,#221,#222,#223));
#346=EDGE_LOOP('',(#224));
#347=FACE_BOUND('',#317,.T.);
#348=FACE_BOUND('',#318,.T.);
#349=FACE_BOUND('',#319,.T.);
#350=FACE_BOUND('',#320,.T.);
#351=FACE_BOUND('',#321,.T.);
#352=FACE_BOUND('',#322,.T.);
#353=FACE_BOUND('',#323,.T.);
#354=FACE_BOUND('',#324,.T.);
#355=FACE_BOUND('',#325,.T.);
#356=FACE_BOUND('',#326,.T.);
#357=FACE_BOUND('',#327,.T.);
#358=FACE_BOUND('',#328,.T.);
#359=FACE_BOUND('',#329,.T.);
#360=FACE_BOUND('',#330,.T.);
#361=FACE_BOUND('',#331,.T.);
#362=FACE_BOUND('',#332,.T.);
#363=FACE_BOUND('',#333,.T.);
#364=FACE_BOUND('',#334,.T.);
#365=FACE_BOUND('',#335,.T.);
#366=FACE_BOUND('',#336,.T.);
#367=FACE_BOUND('',#337,.T.);
#368=FACE_BOUND('',#338,.T.);
#369=FACE_BOUND('',#339,.T.);
#370=FACE_BOUND('',#340,.T.);
#371=FACE_BOUND('',#341,.T.);
#372=FACE_BOUND('',#342,.T.);
#373=FACE_BOUND('',#343,.T.);
#374=FACE_BOUND('',#344,.T.);
#375=FACE_BOUND('',#345,.T.);
#376=FACE_BOUND('',#346,.T.);
#377=(
BOUNDED_SURFACE()
B_SPLINE_SURFACE(3,2,((#555,#556,#557),(#558,#559,#560),(#561,#562,#563),
(#564,#565,#566),(#567,#568,#569),(#570,#571,#572),(#573,#574,#575),(#576,
#577,#578),(#579,#580,#581),(#582,#583,#584),(#585,#586,#587),(#588,#589,
#590),(#591,#592,#593),(#594,#595,#596),(#597,#598,#599),(#600,#601,#602),
(#603,#604,#605),(#606,#607,#608),(#609,#610,#611),(#612,#613,#614),(#615,
#616,#617),(#618,#619,#620),(#621,#622,#623),(#624,#625,#626),(#627,#628,
#629),(#630,#631,#632)),.UNSPECIFIED.,.T.,.F.,.F.)
B_SPLINE_SURFACE_WITH_KNOTS((4,2,2,2,2,2,2,2,2,2,2,2,4),(3,3),(0.,0.000187435695743365,
0.00037487139148673,0.00074974278297346,0.00112461417446019,0.00131204987020356,
0.00149948556594692,0.00168692126169029,0.00187435695743365,0.00224922834892038,
0.00262409974040711,0.00281153543615048,0.00299897113189384),(0.,1.),
 .UNSPECIFIED.)
GEOMETRIC_REPRESENTATION_ITEM()
RATIONAL_B_SPLINE_SURFACE(((1.,0.707106781186548,1.),(1.,0.707106781186548,
1.),(1.,0.707106781186548,1.),(1.,0.707106781186548,1.),(1.,0.707106781186548,
1.),(1.,0.707106781186548,1.),(1.,0.707106781186548,1.),(1.,0.707106781186548,
1.),(1.,0.707106781186548,1.),(1.,0.707106781186548,1.),(1.,0.707106781186548,
1.),(1.,0.707106781186548,1.),(1.,0.707106781186548,1.),(1.,0.707106781186548,
1.),(1.,0.707106781186548,1.),(1.,0.707106781186548,1.),(1.,0.707106781186548,
1.),(1.,0.707106781186548,1.),(1.,0.707106781186548,1.),(1.,0.707106781186548,
1.),(1.,0.707106781186547,1.),(1.,0.707106781186547,1.),(1.,0.707106781186548,
1.),(1.,0.707106781186548,1.),(1.,0.707106781186548,1.),(1.,0.707106781186548,
1.)))
REPRESENTATION_ITEM('')
SURFACE()
);
#378=(
BOUNDED_SURFACE()
B_SPLINE_SURFACE(3,2,((#672,#673,#674),(#675,#676,#677),(#678,#679,#680),
(#681,#682,#683),(#684,#685,#686),(#687,#688,#689),(#690,#691,#692),(#693,
#694,#695),(#696,#697,#698),(#699,#700,#701),(#702,#703,#704),(#705,#706,
#707),(#708,#709,#710),(#711,#712,#713),(#714,#715,#716),(#717,#718,#719),
(#720,#721,#722),(#723,#724,#725),(#726,#727,#728),(#729,#730,#731),(#732,
#733,#734),(#735,#736,#737),(#738,#739,#740),(#741,#742,#743),(#744,#745,
#746),(#747,#748,#749),(#750,#751,#752),(#753,#754,#755),(#756,#757,#758),
(#759,#760,#761),(#762,#763,#764),(#765,#766,#767),(#768,#769,#770),(#771,
#772,#773)),.UNSPECIFIED.,.T.,.F.,.F.)
B_SPLINE_SURFACE_WITH_KNOTS((4,2,2,2,2,2,2,2,2,2,2,2,2,2,2,2,4),(3,3),(0.,
5.48143430481225E-5,0.000109628686096245,0.00021925737219249,0.00043851474438498,
0.00065777211657747,0.000767400802673715,0.000822215145721837,0.00087702948876996,
0.000931843831818082,0.000986658174866205,0.00109628686096245,0.00131554423315494,
0.00153480160534743,0.00164443029144367,0.0016992446344918,0.00175405897753992),
(0.,1.),.UNSPECIFIED.)
GEOMETRIC_REPRESENTATION_ITEM()
RATIONAL_B_SPLINE_SURFACE(((1.,0.707106781186548,1.),(1.,0.707106781186548,
1.),(1.,0.707106781186548,1.),(1.,0.707106781186548,1.),(1.,0.707106781186548,
1.),(1.,0.707106781186548,1.),(1.,0.707106781186548,1.),(1.,0.707106781186548,
1.),(1.,0.707106781186548,1.),(1.,0.707106781186548,1.),(1.,0.707106781186548,
1.),(1.,0.707106781186548,1.),(1.,0.707106781186548,1.),(1.,0.707106781186548,
1.),(1.,0.707106781186548,1.),(1.,0.707106781186548,1.),(1.,0.707106781186548,
1.),(1.,0.707106781186548,1.),(1.,0.707106781186548,1.),(1.,0.707106781186548,
1.),(1.,0.707106781186548,1.),(1.,0.707106781186548,1.),(1.,0.707106781186548,
1.),(1.,0.707106781186548,1.),(1.,0.707106781186548,1.),(1.,0.707106781186548,
1.),(1.,0.707106781186548,1.),(1.,0.707106781186548,1.),(1.,0.707106781186548,
1.),(1.,0.707106781186548,1.),(1.,0.707106781186548,1.),(1.,0.707106781186548,
1.),(1.,0.707106781186548,1.),(1.,0.707106781186548,1.)))
REPRESENTATION_ITEM('')
SURFACE()
);
#379=(
BOUNDED_SURFACE()
B_SPLINE_SURFACE(3,1,((#826,#827),(#828,#829),(#830,#831),(#832,#833),(#834,
#835),(#836,#837),(#838,#839)),.SURF_OF_LINEAR_EXTRUSION.,.T.,.F.,.F.)
B_SPLINE_SURFACE_WITH_KNOTS((4,3,4),(2,2),(0.,0.5,1.),(0.,1.),
 .UNSPECIFIED.)
GEOMETRIC_REPRESENTATION_ITEM()
RATIONAL_B_SPLINE_SURFACE(((1.,1.),(0.333333333333333,0.333333333333333),
(0.333333333333333,0.333333333333333),(1.,1.),(0.333333333333333,0.333333333333333),
(0.333333333333333,0.333333333333333),(1.,1.)))
REPRESENTATION_ITEM('')
SURFACE()
);
#380=ADVANCED_FACE('',(#347,#348),#377,.T.);
#381=ADVANCED_FACE('',(#349,#350),#378,.F.);
#382=ADVANCED_FACE('',(#351),#108,.T.);
#383=ADVANCED_FACE('',(#352,#353),#379,.F.);
#384=ADVANCED_FACE('',(#354),#100,.T.);
#385=ADVANCED_FACE('',(#355),#101,.T.);
#386=ADVANCED_FACE('',(#356),#102,.T.);
#387=ADVANCED_FACE('',(#357),#103,.T.);
#388=ADVANCED_FACE('',(#358),#109,.F.);
#389=ADVANCED_FACE('',(#359),#110,.F.);
#390=ADVANCED_FACE('',(#360),#111,.F.);
#391=ADVANCED_FACE('',(#361),#112,.F.);
#392=ADVANCED_FACE('',(#362),#113,.F.);
#393=ADVANCED_FACE('',(#363),#114,.F.);
#394=ADVANCED_FACE('',(#364),#115,.T.);
#395=ADVANCED_FACE('',(#365),#116,.F.);
#396=ADVANCED_FACE('',(#366),#104,.T.);
#397=ADVANCED_FACE('',(#367),#117,.F.);
#398=ADVANCED_FACE('',(#368),#105,.T.);
#399=ADVANCED_FACE('',(#369),#118,.F.);
#400=ADVANCED_FACE('',(#370),#106,.T.);
#401=ADVANCED_FACE('',(#371),#119,.F.);
#402=ADVANCED_FACE('',(#372),#107,.T.);
#403=ADVANCED_FACE('',(#373,#374,#375,#376),#120,.F.);
#404=CLOSED_SHELL('',(#380,#381,#382,#383,#384,#385,#386,#387,#388,#389,
#390,#391,#392,#393,#394,#395,#396,#397,#398,#399,#400,#401,#402,#403));
#405=MANIFOLD_SOLID_BREP(
'TUP0731W\X\C3\X2\201A00C200AE\X0\a\X\C3\X2\019200E220AC00A000C3201A00C200B700C3203900E220AC00A0\X0\D',
#404);
#406=SHAPE_DEFINITION_REPRESENTATION(#945,#407);
#407=SHAPE_REPRESENTATION(
'TUP0731W\X\C3\X2\019200E220AC016100C3201A00C200AE\X0\a\X\C3\X2\019200C6201900C300A200E2201A00AC00C200A000C3019200E220AC016100C3201A00C200B700C3019200E220AC00B900C300A200E2201A00AC00C200A0\X0\D',
(#408),#940);
#408=AXIS2_PLACEMENT_3D('',#554,#446,#447);
#409=AXIS2_PLACEMENT_3D('',#825,#448,#449);
#410=AXIS2_PLACEMENT_3D('',#840,#450,#451);
#411=AXIS2_PLACEMENT_3D('',#841,#452,#453);
#412=AXIS2_PLACEMENT_3D('',#846,#455,#456);
#413=AXIS2_PLACEMENT_3D('',#849,#458,#459);
#414=AXIS2_PLACEMENT_3D('',#850,#460,#461);
#415=AXIS2_PLACEMENT_3D('',#855,#463,#464);
#416=AXIS2_PLACEMENT_3D('',#858,#466,#467);
#417=AXIS2_PLACEMENT_3D('',#859,#468,#469);
#418=AXIS2_PLACEMENT_3D('',#864,#471,#472);
#419=AXIS2_PLACEMENT_3D('',#867,#474,#475);
#420=AXIS2_PLACEMENT_3D('',#868,#476,#477);
#421=AXIS2_PLACEMENT_3D('',#873,#479,#480);
#422=AXIS2_PLACEMENT_3D('',#876,#482,#483);
#423=AXIS2_PLACEMENT_3D('',#879,#486,#487);
#424=AXIS2_PLACEMENT_3D('',#881,#489,#490);
#425=AXIS2_PLACEMENT_3D('',#883,#492,#493);
#426=AXIS2_PLACEMENT_3D('',#886,#496,#497);
#427=AXIS2_PLACEMENT_3D('',#888,#499,#500);
#428=AXIS2_PLACEMENT_3D('',#890,#502,#503);
#429=AXIS2_PLACEMENT_3D('',#891,#504,#505);
#430=AXIS2_PLACEMENT_3D('',#896,#507,#508);
#431=AXIS2_PLACEMENT_3D('',#900,#510,#511);
#432=AXIS2_PLACEMENT_3D('',#904,#513,#514);
#433=AXIS2_PLACEMENT_3D('',#907,#516,#517);
#434=AXIS2_PLACEMENT_3D('',#913,#521,#522);
#435=AXIS2_PLACEMENT_3D('',#914,#523,#524);
#436=AXIS2_PLACEMENT_3D('',#917,#526,#527);
#437=AXIS2_PLACEMENT_3D('',#921,#530,#531);
#438=AXIS2_PLACEMENT_3D('',#922,#532,#533);
#439=AXIS2_PLACEMENT_3D('',#925,#535,#536);
#440=AXIS2_PLACEMENT_3D('',#929,#539,#540);
#441=AXIS2_PLACEMENT_3D('',#930,#541,#542);
#442=AXIS2_PLACEMENT_3D('',#933,#544,#545);
#443=AXIS2_PLACEMENT_3D('',#937,#548,#549);
#444=AXIS2_PLACEMENT_3D('',#938,#550,#551);
#445=AXIS2_PLACEMENT_3D('',#939,#552,#553);
#446=DIRECTION('',(0.,0.,1.));
#447=DIRECTION('',(1.,0.,0.));
#448=DIRECTION('',(0.,-1.,0.));
#449=DIRECTION('',(0.,0.,-1.));
#450=DIRECTION('',(-1.,0.,2.47817639425258E-16));
#451=DIRECTION('',(2.47817639425258E-16,0.,1.));
#452=DIRECTION('',(1.,0.,2.79794109028517E-16));
#453=DIRECTION('',(-2.79794109028517E-16,0.,1.));
#454=DIRECTION('',(-1.,0.,2.47817639425258E-16));
#455=DIRECTION('',(-1.,0.,-2.44819845399953E-16));
#456=DIRECTION('',(2.44819845399953E-16,0.,-1.));
#457=DIRECTION('',(-1.,0.,2.47817639425258E-16));
#458=DIRECTION('',(1.,0.,0.));
#459=DIRECTION('',(0.,0.,-1.));
#460=DIRECTION('',(-1.,0.,-2.44819845399953E-16));
#461=DIRECTION('',(2.44819845399953E-16,0.,-1.));
#462=DIRECTION('',(1.,0.,0.));
#463=DIRECTION('',(1.,0.,2.79794109028517E-16));
#464=DIRECTION('',(-2.79794109028517E-16,0.,1.));
#465=DIRECTION('',(1.,0.,0.));
#466=DIRECTION('',(1.,0.,0.));
#467=DIRECTION('',(0.,0.,-1.));
#468=DIRECTION('',(-1.,0.,0.));
#469=DIRECTION('',(0.,0.,-1.));
#470=DIRECTION('',(1.,0.,0.));
#471=DIRECTION('',(1.,0.,3.49742636285647E-17));
#472=DIRECTION('',(0.,0.,1.));
#473=DIRECTION('',(1.,0.,0.));
#474=DIRECTION('',(-1.,0.,2.47817639425258E-16));
#475=DIRECTION('',(2.47817639425258E-16,0.,1.));
#476=DIRECTION('',(1.,0.,3.49742636285647E-17));
#477=DIRECTION('',(0.,0.,1.));
#478=DIRECTION('',(-1.,0.,2.47817639425258E-16));
#479=DIRECTION('',(-1.,0.,0.));
#480=DIRECTION('',(0.,-8.88178419700125E-16,-1.));
#481=DIRECTION('',(-1.,0.,2.47817639425258E-16));
#482=DIRECTION('',(0.,1.,0.));
#483=DIRECTION('',(0.,0.,1.));
#484=DIRECTION('',(2.44819845399953E-16,0.,-1.));
#485=DIRECTION('',(-2.79794109028517E-16,0.,1.));
#486=DIRECTION('',(1.,0.,2.44819845399953E-16));
#487=DIRECTION('',(2.44819845399953E-16,0.,-1.));
#488=DIRECTION('',(2.44819845399953E-16,0.,-1.));
#489=DIRECTION('',(-1.,0.,-2.79794109028517E-16));
#490=DIRECTION('',(-2.79794109028517E-16,0.,1.));
#491=DIRECTION('',(-2.79794109028517E-16,0.,1.));
#492=DIRECTION('',(0.,1.,0.));
#493=DIRECTION('',(0.,0.,1.));
#494=DIRECTION('',(-3.49742636285647E-17,0.,1.));
#495=DIRECTION('',(0.,0.,-1.));
#496=DIRECTION('',(1.,0.,0.));
#497=DIRECTION('',(0.,0.,-1.));
#498=DIRECTION('',(0.,0.,-1.));
#499=DIRECTION('',(-1.,0.,-3.49742636285647E-17));
#500=DIRECTION('',(-3.49742636285647E-17,0.,1.));
#501=DIRECTION('',(-3.49742636285647E-17,0.,1.));
#502=DIRECTION('',(0.,1.,0.));
#503=DIRECTION('',(0.,0.,1.));
#504=DIRECTION('',(0.,1.,0.));
#505=DIRECTION('',(0.,0.,1.));
#506=DIRECTION('',(0.,0.,-1.));
#507=DIRECTION('',(0.,1.,0.));
#508=DIRECTION('',(0.,0.,-1.));
#509=DIRECTION('',(-1.,0.,0.));
#510=DIRECTION('',(0.,1.,0.));
#511=DIRECTION('',(0.,0.,-1.));
#512=DIRECTION('',(0.,0.,1.));
#513=DIRECTION('',(0.,1.,0.));
#514=DIRECTION('',(0.,0.,-1.));
#515=DIRECTION('',(1.,0.,0.));
#516=DIRECTION('',(0.,0.,-1.));
#517=DIRECTION('',(-1.,0.,0.));
#518=DIRECTION('',(1.,0.,0.));
#519=DIRECTION('',(0.,-1.,0.));
#520=DIRECTION('',(0.,-1.,0.));
#521=DIRECTION('',(0.,-1.,0.));
#522=DIRECTION('',(0.,0.,-1.));
#523=DIRECTION('',(0.,1.,0.));
#524=DIRECTION('',(0.,0.,-1.));
#525=DIRECTION('',(0.,-1.,0.));
#526=DIRECTION('',(1.,0.,0.));
#527=DIRECTION('',(0.,0.,-1.));
#528=DIRECTION('',(0.,0.,1.));
#529=DIRECTION('',(0.,-1.,0.));
#530=DIRECTION('',(0.,-1.,0.));
#531=DIRECTION('',(0.,0.,-1.));
#532=DIRECTION('',(0.,1.,0.));
#533=DIRECTION('',(0.,0.,-1.));
#534=DIRECTION('',(0.,-1.,0.));
#535=DIRECTION('',(0.,0.,1.));
#536=DIRECTION('',(1.,0.,0.));
#537=DIRECTION('',(-1.,0.,0.));
#538=DIRECTION('',(0.,-1.,0.));
#539=DIRECTION('',(0.,-1.,0.));
#540=DIRECTION('',(0.,0.,-1.));
#541=DIRECTION('',(0.,1.,0.));
#542=DIRECTION('',(0.,0.,-1.));
#543=DIRECTION('',(0.,-1.,0.));
#544=DIRECTION('',(-1.,0.,0.));
#545=DIRECTION('',(0.,0.,1.));
#546=DIRECTION('',(0.,0.,-1.));
#547=DIRECTION('',(0.,-1.,0.));
#548=DIRECTION('',(0.,-1.,0.));
#549=DIRECTION('',(0.,0.,-1.));
#550=DIRECTION('',(0.,1.,0.));
#551=DIRECTION('',(0.,0.,1.));
#552=DIRECTION('',(0.,1.,0.));
#553=DIRECTION('',(0.,0.,1.));
#554=CARTESIAN_POINT('',(0.,0.,0.));
#555=CARTESIAN_POINT('',(5.05902645601706E-5,-1.35525271560688E-20,0.000545715138321672));
#556=CARTESIAN_POINT('',(3.38152975963928E-5,-1.35525271560688E-20,0.000447132175882089));
#557=CARTESIAN_POINT('',(3.38152975963928E-5,0.0001,0.000447132175882089));
#558=CARTESIAN_POINT('',(-1.20024498786618E-5,-1.35525271560688E-20,0.000556366024121606));
#559=CARTESIAN_POINT('',(-8.24066806733289E-6,4.16665556459122E-19,0.000454288506846719));
#560=CARTESIAN_POINT('',(-8.24067624018517E-6,0.0001,0.000454288458816582));
#561=CARTESIAN_POINT('',(-7.6219616768669E-5,-1.35525271560688E-20,0.000546441962633519));
#562=CARTESIAN_POINT('',(-5.04082506317561E-5,-1.35525271560688E-20,0.000448019893194031));
#563=CARTESIAN_POINT('',(-5.04082448819964E-5,0.0001,0.000448019881051102));
#564=CARTESIAN_POINT('',(-0.000189988750767539,-1.35525271560688E-20,0.000492571548593672));
#565=CARTESIAN_POINT('',(-0.000130209038451796,-1.35525271560688E-20,0.000410233646553545));
#566=CARTESIAN_POINT('',(-0.000130209044201556,0.0001,0.000410233658696474));
#567=CARTESIAN_POINT('',(-0.000238805588427419,0.,0.000449384153839507));
#568=CARTESIAN_POINT('',(-0.000167200177198486,-8.46330531060224E-19,0.000378389320450068));
#569=CARTESIAN_POINT('',(-0.000167200193802886,0.0001,0.000378389333134997));
#570=CARTESIAN_POINT('',(-0.000352537121097076,0.,0.0003005113656348));
#571=CARTESIAN_POINT('',(-0.000257353653801065,1.69266106212045E-18,0.000260379746967019));
#572=CARTESIAN_POINT('',(-0.000257353620592264,0.0001,0.00026037972159716));
#573=CARTESIAN_POINT('',(-0.000390260240362872,-1.35525271560688E-20,0.000174959486055274));
#574=CARTESIAN_POINT('',(-0.000291524903560512,2.52882149709156E-18,0.000152258553266684));
#575=CARTESIAN_POINT('',(-0.000291524915722499,0.0001,0.000152258554057307));
#576=CARTESIAN_POINT('',(-0.000406486120057246,-1.35525271560688E-20,-7.46391233758391E-5));
#577=CARTESIAN_POINT('',(-0.000305642723045099,-2.5559265514037E-18,-6.49123575739147E-5));
#578=CARTESIAN_POINT('',(-0.000305642710883111,0.0001,-6.49123583645379E-5));
#579=CARTESIAN_POINT('',(-0.000385842888286077,-2.71050543121376E-20,-0.000201599871307381));
#580=CARTESIAN_POINT('',(-0.000286736779171893,-1.73115895785566E-18,-0.00017626026932863));
#581=CARTESIAN_POINT('',(-0.000286736733317783,0.0001,-0.000176260246466875));
#582=CARTESIAN_POINT('',(-0.000301688182435492,-2.71050543121376E-20,-0.00037038973639741));
#583=CARTESIAN_POINT('',(-0.000217000777078019,8.24921897459625E-19,-0.00031613047851154));
#584=CARTESIAN_POINT('',(-0.000217000800005074,0.0001,-0.000316130489942417));
#585=CARTESIAN_POINT('',(-0.000264599843370644,-1.35525271560688E-20,-0.000422249533737796));
#586=CARTESIAN_POINT('',(-0.000186931328178479,-3.85889757612262E-19,-0.000357349781148496));
#587=CARTESIAN_POINT('',(-0.000186931330263391,0.0001,-0.000357349783527294));
#588=CARTESIAN_POINT('',(-0.000169922858000565,-1.35525271560688E-20,-0.000505229683735384));
#589=CARTESIAN_POINT('',(-0.000115766447373312,4.67204920548675E-19,-0.000419722691353905));
#590=CARTESIAN_POINT('',(-0.0001157664452884,0.0001,-0.000419722688975107));
#591=CARTESIAN_POINT('',(-0.000112403496797011,0.,-0.000535249206574899));
#592=CARTESIAN_POINT('',(-7.53443989888506E-5,8.5303237616048E-19,-0.000440100645659849));
#593=CARTESIAN_POINT('',(-7.53443949645782E-5,0.0001,-0.00044010062189231));
#594=CARTESIAN_POINT('',(1.17153102026777E-5,0.,-0.000556264640012203));
#595=CARTESIAN_POINT('',(8.04459536455032E-6,-8.5303237616048E-19,-0.000454219854481065));
#596=CARTESIAN_POINT('',(8.04459134027795E-6,0.0001,-0.000454219878248604));
#597=CARTESIAN_POINT('',(7.71659958735669E-5,-1.35525271560688E-20,-0.000546165702160288));
#598=CARTESIAN_POINT('',(5.10509448915838E-5,-1.35525271560688E-20,-0.000447836182551167));
#599=CARTESIAN_POINT('',(5.105095189211E-5,0.0001,-0.000447836197240893));
#600=CARTESIAN_POINT('',(0.000190550219391041,-1.35525271560688E-20,-0.000492131532404677));
#601=CARTESIAN_POINT('',(0.000130624272322077,-1.35525271560688E-20,-0.000409914806817736));
#602=CARTESIAN_POINT('',(0.000130624265321551,0.0001,-0.000409914792128009));
#603=CARTESIAN_POINT('',(0.000238854987735345,-1.35525271560688E-20,-0.000449388438445352));
#604=CARTESIAN_POINT('',(0.000167234169234366,-1.35525271560688E-20,-0.000378399488708017));
#605=CARTESIAN_POINT('',(0.000167234174254531,0.0001,-0.000378399492537861));
#606=CARTESIAN_POINT('',(0.000353025541912748,-1.35525271560688E-20,-0.000299733601264943));
#607=CARTESIAN_POINT('',(0.000257751191079665,-1.35525271560688E-20,-0.000259749626856441));
#608=CARTESIAN_POINT('',(0.000257751181039335,0.0001,-0.000259749619196754));
#609=CARTESIAN_POINT('',(0.000390322755799098,-2.71050543121376E-20,-0.000174157829160144));
#610=CARTESIAN_POINT('',(0.000291579278671395,-2.71050543121376E-20,-0.000151561329693794));
#611=CARTESIAN_POINT('',(0.000291579280234691,0.0001,-0.000151561329795289));
#612=CARTESIAN_POINT('',(0.000406431929178182,-2.71050543121376E-20,7.3965603852408E-5));
#613=CARTESIAN_POINT('',(0.000305595590980479,-2.71050543121376E-20,6.43266240050422E-5));
#614=CARTESIAN_POINT('',(0.000305595589417182,0.0001,6.43266241065377E-5));
#615=CARTESIAN_POINT('',(0.000385950335553641,-1.35525271560688E-20,0.00020124639765608));
#616=CARTESIAN_POINT('',(0.000286830486697216,-9.20326383852075E-19,0.000175957980582228));
#617=CARTESIAN_POINT('',(0.000286830476201895,0.0001,0.000175957975355912));
#618=CARTESIAN_POINT('',(0.000301825175716654,-1.35525271560688E-20,0.000370183715855426));
#619=CARTESIAN_POINT('',(0.000217111971653044,3.58519238255522E-19,0.000315964429381856));
#620=CARTESIAN_POINT('',(0.000217111976900704,0.0001,0.000315964431995014));
#621=CARTESIAN_POINT('',(0.000264618524156881,-1.35525271560688E-20,0.000422147652911246));
#622=CARTESIAN_POINT('',(0.000186955193487619,1.25935663516563E-18,0.000357264573802857));
#623=CARTESIAN_POINT('',(0.000186955189216695,0.0001,0.000357264568939966));
#624=CARTESIAN_POINT('',(0.000170524221543943,-1.35525271560688E-20,0.000504787561307935));
#625=CARTESIAN_POINT('',(0.000116208709200999,-1.28646168947776E-18,0.000419398936502516));
#626=CARTESIAN_POINT('',(0.000116208713471923,0.0001,0.000419398941365407));
#627=CARTESIAN_POINT('',(0.000113182978999003,-1.35525271560688E-20,0.000535064252521737));
#628=CARTESIAN_POINT('',(7.58712632601185E-5,-4.4377061077126E-19,0.000439975844917459));
#629=CARTESIAN_POINT('',(7.58712714329708E-5,0.0001,0.000439975892947597));
#630=CARTESIAN_POINT('',(5.05902645601706E-5,-1.35525271560688E-20,0.000545715138321672));
#631=CARTESIAN_POINT('',(3.38152975963928E-5,-1.35525271560688E-20,0.000447132175882089));
#632=CARTESIAN_POINT('',(3.38152975963928E-5,0.0001,0.000447132175882089));
#633=CARTESIAN_POINT('',(-0.000248598144751837,9.99999999767939E-5,0.000331548309316222));
#634=CARTESIAN_POINT('',(-8.17746846495132E-8,9.99999999767939E-5,0.00050935677522832));
#635=CARTESIAN_POINT('',(0.000248925259401091,9.99999999767939E-5,0.000331075949972409));
#636=CARTESIAN_POINT('',(0.000325543563509543,9.99999999767939E-5,-1.09755422610769E-7));
#637=CARTESIAN_POINT('',(0.000248970731377294,9.99999999767939E-5,-0.000330919137131104));
#638=CARTESIAN_POINT('',(8.06736464460443E-8,9.99999999767939E-5,-0.000509395302995987));
#639=CARTESIAN_POINT('',(-0.000248741295467468,9.99999999767939E-5,-0.000331236610822753));
#640=CARTESIAN_POINT('',(-0.000325693544833564,9.99999999767939E-5,-2.4004102952764E-7));
#641=CARTESIAN_POINT('',(-0.000248598144751837,9.99999999767939E-5,0.000331548309316222));
#642=CARTESIAN_POINT('',(-8.17746846495132E-8,9.99999999767939E-5,0.00050935677522832));
#643=CARTESIAN_POINT('',(0.000248925259401091,9.99999999767939E-5,0.000331075949972409));
#644=CARTESIAN_POINT('',(0.,0.0001,0.00045));
#645=CARTESIAN_POINT('',(5.05902645601706E-5,-1.35525271560688E-20,0.000545715138321672));
#646=CARTESIAN_POINT('',(0.000113182978999003,-1.35525271560688E-20,0.000535064252521737));
#647=CARTESIAN_POINT('',(0.000170524221543943,-1.35525271560688E-20,0.000504787561307935));
#648=CARTESIAN_POINT('',(0.000264618524156881,-1.35525271560688E-20,0.000422147652911246));
#649=CARTESIAN_POINT('',(0.000301825175716654,-1.35525271560688E-20,0.000370183715855426));
#650=CARTESIAN_POINT('',(0.000385950335553641,-1.35525271560688E-20,0.00020124639765608));
#651=CARTESIAN_POINT('',(0.000406431929178182,-2.71050543121376E-20,7.3965603852408E-5));
#652=CARTESIAN_POINT('',(0.000390322755799098,-2.71050543121376E-20,-0.000174157829160144));
#653=CARTESIAN_POINT('',(0.000353025541912748,-1.35525271560688E-20,-0.000299733601264943));
#654=CARTESIAN_POINT('',(0.000238854987735345,-1.35525271560688E-20,-0.000449388438445352));
#655=CARTESIAN_POINT('',(0.000190550219391041,-1.35525271560688E-20,-0.000492131532404677));
#656=CARTESIAN_POINT('',(7.71659958735669E-5,-1.35525271560688E-20,-0.000546165702160288));
#657=CARTESIAN_POINT('',(1.17153102026777E-5,0.,-0.000556264640012203));
#658=CARTESIAN_POINT('',(-0.000112403496797011,0.,-0.000535249206574899));
#659=CARTESIAN_POINT('',(-0.000169922858000565,-1.35525271560688E-20,-0.000505229683735384));
#660=CARTESIAN_POINT('',(-0.000264599843370644,-1.35525271560688E-20,-0.000422249533737796));
#661=CARTESIAN_POINT('',(-0.000301688182435492,-2.71050543121376E-20,-0.00037038973639741));
#662=CARTESIAN_POINT('',(-0.000385842888286077,-2.71050543121376E-20,-0.000201599871307381));
#663=CARTESIAN_POINT('',(-0.000406486120057246,-1.35525271560688E-20,-7.46391233758391E-5));
#664=CARTESIAN_POINT('',(-0.000390260240362872,-1.35525271560688E-20,0.000174959486055274));
#665=CARTESIAN_POINT('',(-0.000352537121097076,0.,0.0003005113656348));
#666=CARTESIAN_POINT('',(-0.000238805588427419,0.,0.000449384153839507));
#667=CARTESIAN_POINT('',(-0.000189988750767539,-1.35525271560688E-20,0.000492571548593672));
#668=CARTESIAN_POINT('',(-7.6219616768669E-5,-1.35525271560688E-20,0.000546441962633519));
#669=CARTESIAN_POINT('',(-1.20024498786618E-5,-1.35525271560688E-20,0.000556366024121606));
#670=CARTESIAN_POINT('',(5.05902645601706E-5,-1.35525271560688E-20,0.000545715138321672));
#671=CARTESIAN_POINT('',(5.05902645601706E-5,-1.35525271560688E-20,0.000545715138321672));
#672=CARTESIAN_POINT('',(1.96877638094389E-5,0.0004,0.000348063826888938));
#673=CARTESIAN_POINT('',(3.89709015832423E-5,0.0004,0.000446187017815429));
#674=CARTESIAN_POINT('',(3.89709015832423E-5,0.0003,0.000446187017815429));
#675=CARTESIAN_POINT('',(1.45101015384937E-6,0.0004,0.000351647604808442));
#676=CARTESIAN_POINT('',(3.58864419537487E-6,0.000399999999999999,0.000453139800298102));
#677=CARTESIAN_POINT('',(3.58874396814391E-6,0.0003,0.000453140307996723));
#678=CARTESIAN_POINT('',(-1.73345673225512E-5,0.0004,0.000349998603200608));
#679=CARTESIAN_POINT('',(-3.54405557293782E-5,0.000399999999999999,0.000449547278030315));
#680=CARTESIAN_POINT('',(-3.54408039142444E-5,0.0003,0.000449547995713195));
#681=CARTESIAN_POINT('',(-5.20906429317671E-5,0.0004,0.000337979916962817));
#682=CARTESIAN_POINT('',(-9.93494194475644E-5,0.0004,0.000427448298259297));
#683=CARTESIAN_POINT('',(-9.93491712626982E-5,0.0003,0.000427447580576417));
#684=CARTESIAN_POINT('',(-6.7979123878639E-5,0.0004,0.000328016806411711));
#685=CARTESIAN_POINT('',(-0.000124989265617545,0.0004,0.000410707360475476));
#686=CARTESIAN_POINT('',(-0.000124989461086974,0.0003,0.000410707593917086));
#687=CARTESIAN_POINT('',(-0.000110124189208513,0.0004,0.000292727607328352));
#688=CARTESIAN_POINT('',(-0.000188702246850794,0.0004,0.000357359279275732));
#689=CARTESIAN_POINT('',(-0.000188701855911936,0.0003,0.000357358812392512));
#690=CARTESIAN_POINT('',(-0.000131504856492986,0.0004,0.000262273015198287));
#691=CARTESIAN_POINT('',(-0.000215881534656841,0.0004,0.000316830896338165));
#692=CARTESIAN_POINT('',(-0.000215881660208646,0.0003,0.000316830961114693));
#693=CARTESIAN_POINT('',(-0.000182134749972939,0.0004,0.000164141186518972));
#694=CARTESIAN_POINT('',(-0.000279988708148005,0.0004,0.000192577377528212));
#695=CARTESIAN_POINT('',(-0.000279988457044395,0.0003,0.000192577247975157));
#696=CARTESIAN_POINT('',(-0.000197310593147069,0.0004,9.12567531733905E-5));
#697=CARTESIAN_POINT('',(-0.000296841819509661,0.000400000000000002,0.000107160049700186));
#698=CARTESIAN_POINT('',(-0.000296841833149116,0.0003,0.000107160050148554));
#699=CARTESIAN_POINT('',(-0.000202069287905926,0.0004,-5.35032807141568E-5));
#700=CARTESIAN_POINT('',(-0.000302430086629352,0.000399999999999998,-6.28355569997088E-5));
#701=CARTESIAN_POINT('',(-0.000302430072989897,0.0003,-6.28355574480765E-5));
#702=CARTESIAN_POINT('',(-0.00019131916349124,0.0004,-0.00012732950443319));
#703=CARTESIAN_POINT('',(-0.000290412778326278,0.000400000000000002,-0.00014891017062791));
#704=CARTESIAN_POINT('',(-0.000290412625247636,0.0003,-0.000148910109175741));
#705=CARTESIAN_POINT('',(-0.000150641733096693,0.0004,-0.000228657432423893));
#706=CARTESIAN_POINT('',(-0.000240297113256965,0.000399999999999999,-0.000273748679239394));
#707=CARTESIAN_POINT('',(-0.000240297189796286,0.0003,-0.000273748709965479));
#708=CARTESIAN_POINT('',(-0.000132772692351244,0.0004,-0.000261270261833505));
#709=CARTESIAN_POINT('',(-0.00021817182248588,0.0004,-0.000315197937366108));
#710=CARTESIAN_POINT('',(-0.000218171541231287,0.0003,-0.000315197698472259));
#711=CARTESIAN_POINT('',(-9.71252668336605E-5,0.0004,-0.000303238283753542));
#712=CARTESIAN_POINT('',(-0.000168751204687603,0.0004,-0.000373380982233782));
#713=CARTESIAN_POINT('',(-0.0001687513453149,0.0003,-0.000373381101680706));
#714=CARTESIAN_POINT('',(-8.37623682068257E-5,0.0004,-0.000316020536959575));
#715=CARTESIAN_POINT('',(-0.000149532562392895,0.0004,-0.000392124885479284));
#716=CARTESIAN_POINT('',(-0.000149532284552056,0.0003,-0.000392124483426108));
#717=CARTESIAN_POINT('',(-5.35946644066596E-5,0.0004,-0.000336867623224656));
#718=CARTESIAN_POINT('',(-0.000101527088357778,0.0004,-0.000425298117910722));
#719=CARTESIAN_POINT('',(-0.000101527366198616,0.0003,-0.000425298519963898));
#720=CARTESIAN_POINT('',(-3.66399453681447E-5,0.0004,-0.000344954120716499));
#721=CARTESIAN_POINT('',(-7.19831614672865E-5,0.000400000000000001,-0.000440131527782106));
#722=CARTESIAN_POINT('',(-7.19830705417283E-5,0.0003,-0.000440131033397262));
#723=CARTESIAN_POINT('',(-2.03296296429586E-7,0.0004,-0.000351655220884361));
#724=CARTESIAN_POINT('',(-1.03663827039384E-6,0.0004,-0.000453178745809385));
#725=CARTESIAN_POINT('',(-1.03672919595206E-6,0.0003,-0.000453179240194229));
#726=CARTESIAN_POINT('',(1.85103218834674E-5,0.0004,-0.000349795824291279));
#727=CARTESIAN_POINT('',(3.77567279429807E-5,0.0004,-0.000449119190708667));
#728=CARTESIAN_POINT('',(3.77569219592194E-5,0.0003,-0.00044911973275786));
#729=CARTESIAN_POINT('',(5.33533018153088E-5,0.0004,-0.000337324685995695));
#730=CARTESIAN_POINT('',(0.000101505787791879,0.0004,-0.000426302645522413));
#731=CARTESIAN_POINT('',(0.00010150559377564,0.0003,-0.00042630210347322));
#732=CARTESIAN_POINT('',(6.89182859066532E-5,0.0004,-0.000327371671630151));
#733=CARTESIAN_POINT('',(0.000126476806648796,0.0004,-0.000409674628419253));
#734=CARTESIAN_POINT('',(0.000126477046287388,0.0003,-0.000409674911093888));
#735=CARTESIAN_POINT('',(0.000110990480087688,0.0004,-0.000291705426265042));
#736=CARTESIAN_POINT('',(0.000189869435176651,0.0004,-0.000355934722638348));
#737=CARTESIAN_POINT('',(0.000189868955899466,0.0003,-0.000355934157289078));
#738=CARTESIAN_POINT('',(0.000132204763306909,0.0004,-0.000261097702031196));
#739=CARTESIAN_POINT('',(0.000216783176991179,0.0004,-0.00031531265562748));
#740=CARTESIAN_POINT('',(0.000216783289399158,0.0003,-0.000315312713293378));
#741=CARTESIAN_POINT('',(0.000181931266916877,0.0004,-0.000164166440003793));
#742=CARTESIAN_POINT('',(0.000279699639207448,0.0004,-0.000192670596458455));
#743=CARTESIAN_POINT('',(0.000279699414391491,0.0003,-0.000192670481126659));
#744=CARTESIAN_POINT('',(0.000197312318705378,0.0004,-9.12148045146083E-5));
#745=CARTESIAN_POINT('',(0.000296843846166952,0.000399999999999998,-0.000107110779546253));
#746=CARTESIAN_POINT('',(0.00029684384553267,0.0003,-0.000107110779525405));
#747=CARTESIAN_POINT('',(0.000202067736402705,0.0004,5.34666272255701E-5));
#748=CARTESIAN_POINT('',(0.000302428264369561,0.000400000000000002,6.27925051043745E-5));
#749=CARTESIAN_POINT('',(0.000302428265003843,0.0003,6.27925050835268E-5));
#750=CARTESIAN_POINT('',(0.000191492065817051,0.0004,0.00012652090575734));
#751=CARTESIAN_POINT('',(0.000290609359529934,0.000399999999999998,0.000147955133317866));
#752=CARTESIAN_POINT('',(0.000290609189060926,0.0003,0.000147955065264958));
#753=CARTESIAN_POINT('',(0.000151018084393841,0.0004,0.000227905664683092));
#754=CARTESIAN_POINT('',(0.000240768865959356,0.000400000000000001,0.000272802246632816));
#755=CARTESIAN_POINT('',(0.00024076895119386,0.0003,0.000272802280659269));
#756=CARTESIAN_POINT('',(0.00013316328657434,0.0004,0.000260630617211871));
#757=CARTESIAN_POINT('',(0.000218664627557511,0.0004,0.000314368853835052));
#758=CARTESIAN_POINT('',(0.000218664420616098,0.0003,0.000314368679177519));
#759=CARTESIAN_POINT('',(9.77198429506121E-5,0.0004,0.000302625204927164));
#760=CARTESIAN_POINT('',(0.000169599047775715,0.0004,0.000372503136621662));
#761=CARTESIAN_POINT('',(0.000169599151246421,0.0003,0.000372503223950428));
#762=CARTESIAN_POINT('',(8.46687260467507E-5,0.0004,0.00031521681507549));
#763=CARTESIAN_POINT('',(0.000150868354283537,0.0004,0.00039092071903157));
#764=CARTESIAN_POINT('',(0.000150868073581315,0.0003,0.000390920319475876));
#765=CARTESIAN_POINT('',(5.48458065110637E-5,0.0004,0.000336168018160012));
#766=CARTESIAN_POINT('',(0.000103617007813456,0.000400000000000001,0.000424115293103056));
#767=CARTESIAN_POINT('',(0.000103617288515678,0.0003,0.00042411569265875));
#768=CARTESIAN_POINT('',(3.79245174650283E-5,0.0004,0.000344480048969434));
#769=CARTESIAN_POINT('',(7.43531589711097E-5,0.0004,0.000439234235332756));
#770=CARTESIAN_POINT('',(7.43530591983407E-5,0.0003,0.000439233727634135));
#771=CARTESIAN_POINT('',(1.96877638094389E-5,0.0004,0.000348063826888938));
#772=CARTESIAN_POINT('',(3.89709015832423E-5,0.0004,0.000446187017815429));
#773=CARTESIAN_POINT('',(3.89709015832423E-5,0.0003,0.000446187017815429));
#774=CARTESIAN_POINT('',(1.96877638094389E-5,0.0004,0.000348063826888938));
#775=CARTESIAN_POINT('',(1.45101015384937E-6,0.0004,0.000351647604808442));
#776=CARTESIAN_POINT('',(-1.73345673225512E-5,0.0004,0.000349998603200608));
#777=CARTESIAN_POINT('',(-5.20906429317671E-5,0.0004,0.000337979916962817));
#778=CARTESIAN_POINT('',(-6.7979123878639E-5,0.0004,0.000328016806411711));
#779=CARTESIAN_POINT('',(-0.000110124189208513,0.0004,0.000292727607328352));
#780=CARTESIAN_POINT('',(-0.000131504856492986,0.0004,0.000262273015198287));
#781=CARTESIAN_POINT('',(-0.000182134749972939,0.0004,0.000164141186518972));
#782=CARTESIAN_POINT('',(-0.000197310593147069,0.0004,9.12567531733905E-5));
#783=CARTESIAN_POINT('',(-0.000202069287905926,0.0004,-5.35032807141568E-5));
#784=CARTESIAN_POINT('',(-0.00019131916349124,0.0004,-0.00012732950443319));
#785=CARTESIAN_POINT('',(-0.000150641733096693,0.0004,-0.000228657432423893));
#786=CARTESIAN_POINT('',(-0.000132772692351244,0.0004,-0.000261270261833505));
#787=CARTESIAN_POINT('',(-9.71252668336605E-5,0.0004,-0.000303238283753542));
#788=CARTESIAN_POINT('',(-8.37623682068257E-5,0.0004,-0.000316020536959575));
#789=CARTESIAN_POINT('',(-5.35946644066596E-5,0.0004,-0.000336867623224656));
#790=CARTESIAN_POINT('',(-3.66399453681447E-5,0.0004,-0.000344954120716499));
#791=CARTESIAN_POINT('',(-2.03296296429586E-7,0.0004,-0.000351655220884361));
#792=CARTESIAN_POINT('',(1.85103218834674E-5,0.0004,-0.000349795824291279));
#793=CARTESIAN_POINT('',(5.33533018153088E-5,0.0004,-0.000337324685995695));
#794=CARTESIAN_POINT('',(6.89182859066532E-5,0.0004,-0.000327371671630151));
#795=CARTESIAN_POINT('',(0.000110990480087688,0.0004,-0.000291705426265042));
#796=CARTESIAN_POINT('',(0.000132204763306909,0.0004,-0.000261097702031196));
#797=CARTESIAN_POINT('',(0.000181931266916877,0.0004,-0.000164166440003793));
#798=CARTESIAN_POINT('',(0.000197312318705378,0.0004,-9.12148045146083E-5));
#799=CARTESIAN_POINT('',(0.000202067736402705,0.0004,5.34666272255701E-5));
#800=CARTESIAN_POINT('',(0.000191492065817051,0.0004,0.00012652090575734));
#801=CARTESIAN_POINT('',(0.000151018084393841,0.0004,0.000227905664683092));
#802=CARTESIAN_POINT('',(0.00013316328657434,0.0004,0.000260630617211871));
#803=CARTESIAN_POINT('',(9.77198429506121E-5,0.0004,0.000302625204927164));
#804=CARTESIAN_POINT('',(8.46687260467507E-5,0.0004,0.00031521681507549));
#805=CARTESIAN_POINT('',(5.48458065110637E-5,0.0004,0.000336168018160012));
#806=CARTESIAN_POINT('',(3.79245174650283E-5,0.0004,0.000344480048969434));
#807=CARTESIAN_POINT('',(1.96877638094389E-5,0.0004,0.000348063826888938));
#808=CARTESIAN_POINT('',(1.96877638094389E-5,0.0004,0.000348063826888938));
#809=CARTESIAN_POINT('',(0.000187949793224588,0.000300000000035184,0.000374947484274603));
#810=CARTESIAN_POINT('',(1.24835511188499E-7,0.000300000000035184,0.000487193677482795));
#811=CARTESIAN_POINT('',(-0.00018844016883674,0.000300000000035184,0.0003747267670746));
#812=CARTESIAN_POINT('',(-0.000273538605277681,0.000300000000035184,0.000213696245440443));
#813=CARTESIAN_POINT('',(-0.000317863236359059,0.000300000000035184,-7.23071551796321E-7));
#814=CARTESIAN_POINT('',(-0.000272999476521103,0.000300000000035184,-0.000215110902071227));
#815=CARTESIAN_POINT('',(-0.000187422131971669,0.000300000000035184,-0.000376110909416409));
#816=CARTESIAN_POINT('',(3.17434493620774E-6,0.000300000000035184,-0.000487356569538452));
#817=CARTESIAN_POINT('',(0.000189446296219455,0.000300000000035184,-0.000372903282673858));
#818=CARTESIAN_POINT('',(0.000273521495639515,0.000300000000035184,-0.000213531832189052));
#819=CARTESIAN_POINT('',(0.000317733274316273,0.000300000000035184,9.33716511621539E-7));
#820=CARTESIAN_POINT('',(0.000273427776581666,0.000300000000035184,0.000214170114646692));
#821=CARTESIAN_POINT('',(0.000187949793224588,0.000300000000035184,0.000374947484274603));
#822=CARTESIAN_POINT('',(1.24835511188499E-7,0.000300000000035184,0.000487193677482795));
#823=CARTESIAN_POINT('',(-0.00018844016883674,0.000300000000035184,0.0003747267670746));
#824=CARTESIAN_POINT('',(0.,0.0003,0.00045));
#825=CARTESIAN_POINT('',(0.,0.0004,0.));
#826=CARTESIAN_POINT('',(0.,0.0003,0.00045));
#827=CARTESIAN_POINT('',(0.,0.0001,0.00045));
#828=CARTESIAN_POINT('',(-0.0006,0.0003,0.00045));
#829=CARTESIAN_POINT('',(-0.0006,0.0001,0.00045));
#830=CARTESIAN_POINT('',(-0.0006,0.0003,-0.00045));
#831=CARTESIAN_POINT('',(-0.0006,0.0001,-0.00045));
#832=CARTESIAN_POINT('',(-3.67394039744206E-20,0.0003,-0.00045));
#833=CARTESIAN_POINT('',(-3.67394039744206E-20,0.0001,-0.00045));
#834=CARTESIAN_POINT('',(0.0006,0.0003,-0.00045));
#835=CARTESIAN_POINT('',(0.0006,0.0001,-0.00045));
#836=CARTESIAN_POINT('',(0.0006,0.0003,0.00045));
#837=CARTESIAN_POINT('',(0.0006,0.0001,0.00045));
#838=CARTESIAN_POINT('',(0.,0.0003,0.00045));
#839=CARTESIAN_POINT('',(0.,0.0001,0.00045));
#840=CARTESIAN_POINT('',(6.93889390390722E-19,0.,0.0028));
#841=CARTESIAN_POINT('',(0.003325,0.,0.0028));
#842=CARTESIAN_POINT('',(0.003325,0.,0.0031));
#843=CARTESIAN_POINT('',(0.003325,-0.0003,0.0028));
#844=CARTESIAN_POINT('',(7.682346822183E-19,0.,0.0031));
#845=CARTESIAN_POINT('',(0.001575,-1.22464679914735E-20,0.0031));
#846=CARTESIAN_POINT('',(0.001575,0.,0.0028));
#847=CARTESIAN_POINT('',(0.001575,-0.0003,0.0028));
#848=CARTESIAN_POINT('',(6.93889390390722E-19,-0.0003,0.0028));
#849=CARTESIAN_POINT('',(0.,0.,-0.0028));
#850=CARTESIAN_POINT('',(0.001575,0.,-0.0028));
#851=CARTESIAN_POINT('',(0.001575,0.,-0.0031));
#852=CARTESIAN_POINT('',(0.001575,-0.0003,-0.0028));
#853=CARTESIAN_POINT('',(0.,0.,-0.0031));
#854=CARTESIAN_POINT('',(0.003325,-1.22464679914735E-20,-0.0031));
#855=CARTESIAN_POINT('',(0.003325,0.,-0.0028));
#856=CARTESIAN_POINT('',(0.003325,-0.0003,-0.0028));
#857=CARTESIAN_POINT('',(0.,-0.0003,-0.0028));
#858=CARTESIAN_POINT('',(0.,0.,-0.0028));
#859=CARTESIAN_POINT('',(-0.003325,0.,-0.0028));
#860=CARTESIAN_POINT('',(-0.003325,0.,-0.0031));
#861=CARTESIAN_POINT('',(-0.003325,-0.0003,-0.0028));
#862=CARTESIAN_POINT('',(-0.003325,0.,-0.0031));
#863=CARTESIAN_POINT('',(-0.001575,0.,-0.0031));
#864=CARTESIAN_POINT('',(-0.001575,0.,-0.0028));
#865=CARTESIAN_POINT('',(-0.001575,-0.0003,-0.0028));
#866=CARTESIAN_POINT('',(0.,-0.0003,-0.0028));
#867=CARTESIAN_POINT('',(6.93889390390722E-19,0.,0.0028));
#868=CARTESIAN_POINT('',(-0.001575,0.,0.0028));
#869=CARTESIAN_POINT('',(-0.001575,0.,0.0031));
#870=CARTESIAN_POINT('',(-0.001575,-0.0003,0.0028));
#871=CARTESIAN_POINT('',(-0.003325,0.,0.0031));
#872=CARTESIAN_POINT('',(-0.003325,0.,0.0031));
#873=CARTESIAN_POINT('',(-0.003325,0.,0.0028));
#874=CARTESIAN_POINT('',(-0.003325,-0.0003,0.0028));
#875=CARTESIAN_POINT('',(6.93889390390722E-19,-0.0003,0.0028));
#876=CARTESIAN_POINT('',(0.,-0.0003,0.));
#877=CARTESIAN_POINT('',(0.001575,-0.0003,3.85591256504926E-19));
#878=CARTESIAN_POINT('',(0.003325,-0.0003,9.3031541251982E-19));
#879=CARTESIAN_POINT('',(0.001575,-0.0003,-0.0031));
#880=CARTESIAN_POINT('',(0.001575,0.,-0.0031));
#881=CARTESIAN_POINT('',(0.003325,-0.0003,-0.0031));
#882=CARTESIAN_POINT('',(0.003325,0.,-0.0031));
#883=CARTESIAN_POINT('',(0.,-0.0003,0.));
#884=CARTESIAN_POINT('',(-0.001575,-0.0003,-0.0031));
#885=CARTESIAN_POINT('',(-0.003325,-0.0003,-0.0031));
#886=CARTESIAN_POINT('',(-0.003325,-0.0003,-0.0031));
#887=CARTESIAN_POINT('',(-0.003325,0.,-0.0031));
#888=CARTESIAN_POINT('',(-0.001575,-0.0003,-0.0031));
#889=CARTESIAN_POINT('',(-0.001575,0.,-0.0031));
#890=CARTESIAN_POINT('',(0.0035,0.0026,0.0036));
#891=CARTESIAN_POINT('',(0.0035,0.0026,0.0036));
#892=CARTESIAN_POINT('',(0.0035,0.0026,0.0039));
#893=CARTESIAN_POINT('',(0.0038,0.0026,0.0036));
#894=CARTESIAN_POINT('',(0.0038,0.0026,0.0036));
#895=CARTESIAN_POINT('',(0.0038,0.0026,-0.0036));
#896=CARTESIAN_POINT('',(0.0035,0.0026,-0.0036));
#897=CARTESIAN_POINT('',(0.0035,0.0026,-0.0039));
#898=CARTESIAN_POINT('',(-0.0035,0.0026,-0.0039));
#899=CARTESIAN_POINT('',(-0.0035,0.0026,-0.0039));
#900=CARTESIAN_POINT('',(-0.0035,0.0026,-0.0036));
#901=CARTESIAN_POINT('',(-0.0038,0.0026,-0.0036));
#902=CARTESIAN_POINT('',(-0.0038,0.0026,0.0036));
#903=CARTESIAN_POINT('',(-0.0038,0.0026,0.0036));
#904=CARTESIAN_POINT('',(-0.0035,0.0026,0.0036));
#905=CARTESIAN_POINT('',(-0.0035,0.0026,0.0039));
#906=CARTESIAN_POINT('',(-0.0035,0.0026,0.0039));
#907=CARTESIAN_POINT('',(-0.0035,0.0026,0.0039));
#908=CARTESIAN_POINT('',(-0.0035,0.,0.0039));
#909=CARTESIAN_POINT('',(-0.0035,0.,0.0039));
#910=CARTESIAN_POINT('',(0.0035,0.,0.0039));
#911=CARTESIAN_POINT('',(0.0035,0.0026,0.0039));
#912=CARTESIAN_POINT('',(-0.0035,0.0026,0.0039));
#913=CARTESIAN_POINT('',(-0.0035,0.0026,0.0036));
#914=CARTESIAN_POINT('',(-0.0035,0.,0.0036));
#915=CARTESIAN_POINT('',(-0.0038,0.,0.0036));
#916=CARTESIAN_POINT('',(-0.0038,0.0026,0.0036));
#917=CARTESIAN_POINT('',(-0.0038,0.0026,0.0036));
#918=CARTESIAN_POINT('',(-0.0038,0.,0.0036));
#919=CARTESIAN_POINT('',(-0.0038,0.,-0.0036));
#920=CARTESIAN_POINT('',(-0.0038,0.0026,-0.0036));
#921=CARTESIAN_POINT('',(-0.0035,0.0026,-0.0036));
#922=CARTESIAN_POINT('',(-0.0035,0.,-0.0036));
#923=CARTESIAN_POINT('',(-0.0035,0.,-0.0039));
#924=CARTESIAN_POINT('',(-0.0035,0.0026,-0.0039));
#925=CARTESIAN_POINT('',(-0.0035,0.0026,-0.0039));
#926=CARTESIAN_POINT('',(-0.0035,0.,-0.0039));
#927=CARTESIAN_POINT('',(0.0035,0.,-0.0039));
#928=CARTESIAN_POINT('',(0.0035,0.0026,-0.0039));
#929=CARTESIAN_POINT('',(0.0035,0.0026,-0.0036));
#930=CARTESIAN_POINT('',(0.0035,0.,-0.0036));
#931=CARTESIAN_POINT('',(0.0038,0.,-0.0036));
#932=CARTESIAN_POINT('',(0.0038,0.0026,-0.0036));
#933=CARTESIAN_POINT('',(0.0038,0.0026,0.0036));
#934=CARTESIAN_POINT('',(0.0038,0.,0.0036));
#935=CARTESIAN_POINT('',(0.0038,0.,0.0036));
#936=CARTESIAN_POINT('',(0.0038,0.0026,0.0036));
#937=CARTESIAN_POINT('',(0.0035,0.0026,0.0036));
#938=CARTESIAN_POINT('',(0.0035,0.,0.0036));
#939=CARTESIAN_POINT('',(0.0035,0.,0.0036));
#940=(
GEOMETRIC_REPRESENTATION_CONTEXT(3)
GLOBAL_UNCERTAINTY_ASSIGNED_CONTEXT((#941))
GLOBAL_UNIT_ASSIGNED_CONTEXT((#944,#943,#942))
REPRESENTATION_CONTEXT(
'TUP0731W\X\C3\X2\019200E220AC016100C3201A00C200AE\X0\a\X\C3\X2\019200C6201900C300A200E2201A00AC00C200A000C3019200E220AC016100C3201A00C200B700C3019200E220AC00B900C300A200E2201A00AC00C200A0\X0\D',
'TOP_LEVEL_ASSEMBLY_PART')
);
#941=UNCERTAINTY_MEASURE_WITH_UNIT(LENGTH_MEASURE(5.E-6),#944,
'DISTANCE_ACCURACY_VALUE','Maximum Tolerance applied to model');
#942=(
NAMED_UNIT(*)
SI_UNIT($,.STERADIAN.)
SOLID_ANGLE_UNIT()
);
#943=(
NAMED_UNIT(*)
PLANE_ANGLE_UNIT()
SI_UNIT($,.RADIAN.)
);
#944=(
LENGTH_UNIT()
NAMED_UNIT(*)
SI_UNIT($,.METRE.)
);
#945=PRODUCT_DEFINITION_SHAPE('','',#946);
#946=PRODUCT_DEFINITION('','',#948,#947);
#947=PRODUCT_DEFINITION_CONTEXT('',#954,'design');
#948=PRODUCT_DEFINITION_FORMATION_WITH_SPECIFIED_SOURCE('','',#950,
 .NOT_KNOWN.);
#949=PRODUCT_RELATED_PRODUCT_CATEGORY('','',(#950));
#950=PRODUCT(
'TUP0731W\X\C3\X2\019200E220AC016100C3201A00C200AE\X0\a\X\C3\X2\019200C6201900C300A200E2201A00AC00C200A000C3019200E220AC016100C3201A00C200B700C3019200E220AC00B900C300A200E2201A00AC00C200A0\X0\D',

'TUP0731W\X\C3\X2\019200E220AC016100C3201A00C200AE\X0\a\X\C3\X2\019200C6201900C300A200E2201A00AC00C200A000C3019200E220AC016100C3201A00C200B700C3019200E220AC00B900C300A200E2201A00AC00C200A0\X0\D',

'TUP0731W\X\C3\X2\019200E220AC016100C3201A00C200AE\X0\a\X\C3\X2\019200C6201900C300A200E2201A00AC00C200A000C3019200E220AC016100C3201A00C200B700C3019200E220AC00B900C300A200E2201A00AC00C200A0\X0\D',
(#952));
#951=PRODUCT_CATEGORY('','');
#952=PRODUCT_CONTEXT('',#954,'mechanical');
#953=APPLICATION_PROTOCOL_DEFINITION('international standard',
'automotive_design',2010,#954);
#954=APPLICATION_CONTEXT(
'core data for automotive mechanical design processes');
ENDSEC;
END-ISO-10303-21;
